<?xml version="1.0" encoding="UTF-8" standalone="no"?>
<!DOCTYPE svg PUBLIC "-//W3C//DTD SVG 1.1//EN" "http://www.w3.org/Graphics/SVG/1.1/DTD/svg11.dtd">
<svg width="100%" height="100%" viewBox="0 0 3300 2550" version="1.1" xmlns="http://www.w3.org/2000/svg" xmlns:xlink="http://www.w3.org/1999/xlink" xml:space="preserve" xmlns:serif="http://www.serif.com/" style="fill-rule:evenodd;clip-rule:evenodd;">
    <g transform="matrix(0,4.16667,4.16667,0,733.169,-157.627)">
        <rect x="92.831" y="-120.461" width="27.63" height="213.291" style="fill:rgb(36,109,143);"/>
    </g>
    <g transform="matrix(4.16667,0,0,4.16667,0,0)">
        <g transform="matrix(11,0,0,11,132.758,74.1025)">
            <path d="M0.089,-0L0.508,-0L0.508,-0.117L0.213,-0.117L0.213,-0.69L0.089,-0.69L0.089,-0Z" style="fill:white;fill-rule:nonzero;"/>
        </g>
        <g transform="matrix(11,0,0,11,138.467,74.1025)">
            <path d="M0.089,-0L0.548,-0L0.548,-0.117L0.213,-0.117L0.213,-0.288L0.525,-0.288L0.525,-0.402L0.213,-0.402L0.213,-0.576L0.548,-0.576L0.548,-0.69L0.089,-0.69L0.089,-0Z" style="fill:white;fill-rule:nonzero;"/>
        </g>
        <g transform="matrix(11,0,0,11,147.807,74.1025)">
            <path d="M0.089,-0L0.212,-0L0.212,-0.286L0.305,-0.286C0.446,-0.286 0.549,-0.357 0.549,-0.486C0.549,-0.616 0.446,-0.69 0.305,-0.69L0.089,-0.69L0.089,-0ZM0.212,-0.402L0.212,-0.574L0.305,-0.574C0.389,-0.574 0.426,-0.542 0.426,-0.486C0.426,-0.431 0.39,-0.402 0.305,-0.402L0.212,-0.402Z" style="fill:white;fill-rule:nonzero;"/>
        </g>
        <g transform="matrix(11,0,0,11,154.182,74.1025)">
            <path d="M0.089,-0L0.213,-0L0.213,-0.295L0.296,-0.295L0.466,-0L0.608,-0L0.416,-0.307C0.494,-0.334 0.551,-0.4 0.551,-0.487C0.551,-0.616 0.441,-0.69 0.312,-0.69L0.089,-0.69L0.089,-0ZM0.214,-0.396L0.214,-0.579L0.313,-0.579C0.384,-0.579 0.428,-0.542 0.428,-0.485C0.428,-0.433 0.389,-0.399 0.323,-0.396L0.214,-0.396Z" style="fill:white;fill-rule:nonzero;"/>
        </g>
        <g transform="matrix(11,0,0,11,160.939,74.1025)">
            <path d="M0.373,0.01C0.601,0.01 0.706,-0.157 0.706,-0.345C0.706,-0.533 0.601,-0.7 0.373,-0.7C0.145,-0.7 0.04,-0.533 0.04,-0.345C0.04,-0.157 0.145,0.01 0.373,0.01ZM0.373,-0.1C0.225,-0.1 0.171,-0.215 0.171,-0.345C0.171,-0.475 0.225,-0.59 0.373,-0.59C0.521,-0.59 0.575,-0.475 0.575,-0.345C0.575,-0.215 0.521,-0.1 0.373,-0.1Z" style="fill:white;fill-rule:nonzero;"/>
        </g>
        <g transform="matrix(11,0,0,11,169.146,74.1025)">
            <path d="M0.374,0.01C0.511,0.01 0.621,-0.06 0.676,-0.189L0.561,-0.236C0.524,-0.143 0.463,-0.108 0.374,-0.108C0.226,-0.108 0.163,-0.213 0.163,-0.35C0.163,-0.478 0.226,-0.583 0.372,-0.583C0.462,-0.583 0.533,-0.548 0.559,-0.457L0.675,-0.503C0.619,-0.632 0.51,-0.701 0.373,-0.701C0.146,-0.701 0.04,-0.534 0.04,-0.345C0.04,-0.156 0.147,0.01 0.374,0.01Z" style="fill:white;fill-rule:nonzero;"/>
        </g>
        <g transform="matrix(11,0,0,11,176.837,74.1025)">
            <path d="M0.089,-0L0.213,-0L0.213,-0.288L0.515,-0.288L0.515,-0L0.639,-0L0.639,-0.69L0.515,-0.69L0.515,-0.402L0.213,-0.402L0.213,-0.69L0.089,-0.69L0.089,-0Z" style="fill:white;fill-rule:nonzero;"/>
        </g>
        <g transform="matrix(11,0,0,11,184.845,74.1025)">
            <path d="M0.089,-0L0.548,-0L0.548,-0.117L0.213,-0.117L0.213,-0.288L0.525,-0.288L0.525,-0.402L0.213,-0.402L0.213,-0.576L0.548,-0.576L0.548,-0.69L0.089,-0.69L0.089,-0Z" style="fill:white;fill-rule:nonzero;"/>
        </g>
    </g>
    <g transform="matrix(0,4.16667,4.16667,0,733.169,-157.627)">
        <rect x="92.831" y="-120.461" width="27.63" height="213.291" style="fill:none;stroke:rgb(36,109,143);stroke-width:2px;"/>
    </g>
    <g transform="matrix(4.16667,0,0,4.16667,0,-960.867)">
        <rect x="55" y="318.197" width="213.791" height="206.214" style="fill:none;stroke:rgb(36,109,143);stroke-width:2px;"/>
    </g>
    <g transform="matrix(0,4.16667,4.16667,0,730.967,904.638)">
        <rect x="93.377" y="-120.432" width="27.055" height="213.809" style="fill:rgb(36,109,143);"/>
    </g>
    <g transform="matrix(4.16667,0,0,4.16667,0,0)">
        <g transform="matrix(10,0,0,10,107.849,329.593)">
            <path d="M0.089,-0L0.508,-0L0.508,-0.117L0.213,-0.117L0.213,-0.69L0.089,-0.69L0.089,-0Z" style="fill:white;fill-rule:nonzero;"/>
        </g>
        <g transform="matrix(10,0,0,10,113.118,329.593)">
            <path d="M0.006,-0L0.141,-0L0.197,-0.15L0.461,-0.15L0.516,-0L0.65,-0L0.375,-0.69L0.282,-0.69L0.006,-0ZM0.236,-0.256L0.329,-0.508L0.422,-0.256L0.236,-0.256Z" style="fill:white;fill-rule:nonzero;"/>
        </g>
        <g transform="matrix(10,0,0,10,122.089,329.593)">
            <path d="M0.089,-0L0.212,-0L0.212,-0.286L0.305,-0.286C0.446,-0.286 0.549,-0.357 0.549,-0.486C0.549,-0.616 0.446,-0.69 0.305,-0.69L0.089,-0.69L0.089,-0ZM0.212,-0.402L0.212,-0.574L0.305,-0.574C0.389,-0.574 0.426,-0.542 0.426,-0.486C0.426,-0.431 0.39,-0.402 0.305,-0.402L0.212,-0.402Z" style="fill:white;fill-rule:nonzero;"/>
        </g>
        <g transform="matrix(10,0,0,10,127.885,329.593)">
            <path d="M0.089,-0L0.548,-0L0.548,-0.117L0.213,-0.117L0.213,-0.288L0.525,-0.288L0.525,-0.402L0.213,-0.402L0.213,-0.576L0.548,-0.576L0.548,-0.69L0.089,-0.69L0.089,-0Z" style="fill:white;fill-rule:nonzero;"/>
        </g>
        <g transform="matrix(10,0,0,10,133.965,329.593)">
            <path d="M0.089,-0L0.213,-0L0.213,-0.295L0.296,-0.295L0.466,-0L0.608,-0L0.416,-0.307C0.494,-0.334 0.551,-0.4 0.551,-0.487C0.551,-0.616 0.441,-0.69 0.312,-0.69L0.089,-0.69L0.089,-0ZM0.214,-0.396L0.214,-0.579L0.313,-0.579C0.384,-0.579 0.428,-0.542 0.428,-0.485C0.428,-0.433 0.389,-0.399 0.323,-0.396L0.214,-0.396Z" style="fill:white;fill-rule:nonzero;"/>
        </g>
        <g transform="matrix(10,0,0,10,140.157,329.593)">
            <path d="M0.286,0.008C0.418,0.008 0.526,-0.071 0.526,-0.201C0.526,-0.43 0.192,-0.386 0.192,-0.516C0.192,-0.56 0.23,-0.59 0.279,-0.59C0.325,-0.59 0.366,-0.563 0.39,-0.516L0.493,-0.579C0.446,-0.663 0.368,-0.7 0.283,-0.7C0.167,-0.7 0.068,-0.632 0.068,-0.51C0.068,-0.285 0.402,-0.333 0.402,-0.19C0.402,-0.141 0.362,-0.102 0.288,-0.102C0.215,-0.102 0.154,-0.14 0.145,-0.226L0.022,-0.195C0.044,-0.059 0.164,0.008 0.286,0.008Z" style="fill:white;fill-rule:nonzero;"/>
        </g>
        <g transform="matrix(10,0,0,10,145.69,329.593)">
            <path d="M0.373,0.01C0.601,0.01 0.706,-0.157 0.706,-0.345C0.706,-0.533 0.601,-0.7 0.373,-0.7C0.145,-0.7 0.04,-0.533 0.04,-0.345C0.04,-0.157 0.145,0.01 0.373,0.01ZM0.373,-0.1C0.225,-0.1 0.171,-0.215 0.171,-0.345C0.171,-0.475 0.225,-0.59 0.373,-0.59C0.521,-0.59 0.575,-0.475 0.575,-0.345C0.575,-0.215 0.521,-0.1 0.373,-0.1Z" style="fill:white;fill-rule:nonzero;"/>
        </g>
        <g transform="matrix(10,0,0,10,153.151,329.593)">
            <path d="M0.502,-0.69L0.502,-0.208L0.212,-0.69L0.089,-0.69L0.089,-0L0.208,-0L0.208,-0.485L0.497,-0L0.621,-0L0.621,-0.69L0.502,-0.69Z" style="fill:white;fill-rule:nonzero;"/>
        </g>
        <g transform="matrix(10,0,0,10,160.251,329.593)">
            <path d="M0.502,-0.69L0.502,-0.208L0.212,-0.69L0.089,-0.69L0.089,-0L0.208,-0L0.208,-0.485L0.497,-0L0.621,-0L0.621,-0.69L0.502,-0.69Z" style="fill:white;fill-rule:nonzero;"/>
        </g>
        <g transform="matrix(10,0,0,10,167.351,329.593)">
            <path d="M0.089,-0L0.548,-0L0.548,-0.117L0.213,-0.117L0.213,-0.288L0.525,-0.288L0.525,-0.402L0.213,-0.402L0.213,-0.576L0.548,-0.576L0.548,-0.69L0.089,-0.69L0.089,-0Z" style="fill:white;fill-rule:nonzero;"/>
        </g>
        <g transform="matrix(10,0,0,10,175.843,329.593)">
            <path d="M0.622,-0.69L0.439,-0.199L0.256,-0.69L0.089,-0.69L0.089,-0L0.208,-0L0.208,-0.515L0.379,-0.06L0.499,-0.06L0.67,-0.515L0.67,-0L0.789,-0L0.789,-0.69L0.622,-0.69Z" style="fill:white;fill-rule:nonzero;"/>
        </g>
        <g transform="matrix(10,0,0,10,184.623,329.593)">
            <path d="M0.006,-0L0.141,-0L0.197,-0.15L0.461,-0.15L0.516,-0L0.65,-0L0.375,-0.69L0.282,-0.69L0.006,-0ZM0.236,-0.256L0.329,-0.508L0.422,-0.256L0.236,-0.256Z" style="fill:white;fill-rule:nonzero;"/>
        </g>
        <g transform="matrix(10,0,0,10,191.181,329.593)">
            <path d="M0.089,-0L0.508,-0L0.508,-0.117L0.213,-0.117L0.213,-0.69L0.089,-0.69L0.089,-0Z" style="fill:white;fill-rule:nonzero;"/>
        </g>
        <g transform="matrix(10,0,0,10,196.45,329.593)">
            <path d="M0.006,-0L0.141,-0L0.197,-0.15L0.461,-0.15L0.516,-0L0.65,-0L0.375,-0.69L0.282,-0.69L0.006,-0ZM0.236,-0.256L0.329,-0.508L0.422,-0.256L0.236,-0.256Z" style="fill:white;fill-rule:nonzero;"/>
        </g>
        <g transform="matrix(10,0,0,10,203.008,329.593)">
            <path d="M0.089,-0L0.288,-0C0.52,-0 0.648,-0.125 0.648,-0.34C0.648,-0.564 0.524,-0.69 0.289,-0.69L0.089,-0.69L0.089,-0ZM0.213,-0.114L0.213,-0.576L0.287,-0.576C0.457,-0.576 0.524,-0.509 0.524,-0.345C0.524,-0.173 0.428,-0.114 0.276,-0.114L0.213,-0.114Z" style="fill:white;fill-rule:nonzero;"/>
        </g>
        <g transform="matrix(10,0,0,10,209.889,329.593)">
            <path d="M0.089,-0L0.548,-0L0.548,-0.117L0.213,-0.117L0.213,-0.288L0.525,-0.288L0.525,-0.402L0.213,-0.402L0.213,-0.576L0.548,-0.576L0.548,-0.69L0.089,-0.69L0.089,-0Z" style="fill:white;fill-rule:nonzero;"/>
        </g>
    </g>
    <g transform="matrix(0,4.16667,4.16667,0,730.967,904.638)">
        <rect x="93.377" y="-120.432" width="27.055" height="213.809" style="fill:none;stroke:rgb(36,109,143);stroke-width:2px;"/>
    </g>
    <g transform="matrix(4.16667,0,0,4.16667,0,694.996)">
        <rect x="55" y="175.756" width="213.809" height="93.689" style="fill:none;stroke:rgb(36,109,143);stroke-width:2px;"/>
    </g>
    <g transform="matrix(0,4.16667,4.16667,0,730.408,1498.77)">
        <rect x="93.243" y="-120.298" width="27.055" height="213.541" style="fill:rgb(36,109,143);"/>
    </g>
    <g transform="matrix(4.16667,0,0,4.16667,0,0)">
        <g transform="matrix(10,0,0,10,86.8708,472.051)">
            <path d="M0.089,-0L0.508,-0L0.508,-0.117L0.213,-0.117L0.213,-0.69L0.089,-0.69L0.089,-0Z" style="fill:white;fill-rule:nonzero;"/>
        </g>
        <g transform="matrix(10,0,0,10,92.0615,472.051)">
            <path d="M0.089,-0L0.548,-0L0.548,-0.117L0.213,-0.117L0.213,-0.288L0.525,-0.288L0.525,-0.402L0.213,-0.402L0.213,-0.576L0.548,-0.576L0.548,-0.69L0.089,-0.69L0.089,-0Z" style="fill:white;fill-rule:nonzero;"/>
        </g>
        <g transform="matrix(10,0,0,10,98.1408,472.051)">
            <path d="M0.286,0.008C0.418,0.008 0.526,-0.071 0.526,-0.201C0.526,-0.43 0.192,-0.386 0.192,-0.516C0.192,-0.56 0.23,-0.59 0.279,-0.59C0.325,-0.59 0.366,-0.563 0.39,-0.516L0.493,-0.579C0.446,-0.663 0.368,-0.7 0.283,-0.7C0.167,-0.7 0.068,-0.632 0.068,-0.51C0.068,-0.285 0.402,-0.333 0.402,-0.19C0.402,-0.141 0.362,-0.102 0.288,-0.102C0.215,-0.102 0.154,-0.14 0.145,-0.226L0.022,-0.195C0.044,-0.059 0.164,0.008 0.286,0.008Z" style="fill:white;fill-rule:nonzero;"/>
        </g>
        <g transform="matrix(10,0,0,10,106.105,472.051)">
            <path d="M0.374,0.01C0.511,0.01 0.621,-0.06 0.676,-0.189L0.561,-0.236C0.524,-0.143 0.463,-0.108 0.374,-0.108C0.226,-0.108 0.163,-0.213 0.163,-0.35C0.163,-0.478 0.226,-0.583 0.372,-0.583C0.462,-0.583 0.533,-0.548 0.559,-0.457L0.675,-0.503C0.619,-0.632 0.51,-0.701 0.373,-0.701C0.146,-0.701 0.04,-0.534 0.04,-0.345C0.04,-0.156 0.147,0.01 0.374,0.01Z" style="fill:white;fill-rule:nonzero;"/>
        </g>
        <g transform="matrix(10,0,0,10,113.098,472.051)">
            <rect x="0.089" y="-0.69" width="0.124" height="0.69" style="fill:white;fill-rule:nonzero;"/>
        </g>
        <g transform="matrix(10,0,0,10,116.115,472.051)">
            <path d="M0.089,-0L0.213,-0L0.213,-0.295L0.296,-0.295L0.466,-0L0.608,-0L0.416,-0.307C0.494,-0.334 0.551,-0.4 0.551,-0.487C0.551,-0.616 0.441,-0.69 0.312,-0.69L0.089,-0.69L0.089,-0ZM0.214,-0.396L0.214,-0.579L0.313,-0.579C0.384,-0.579 0.428,-0.542 0.428,-0.485C0.428,-0.433 0.389,-0.399 0.323,-0.396L0.214,-0.396Z" style="fill:white;fill-rule:nonzero;"/>
        </g>
        <g transform="matrix(10,0,0,10,122.258,472.051)">
            <path d="M0.374,0.01C0.511,0.01 0.621,-0.06 0.676,-0.189L0.561,-0.236C0.524,-0.143 0.463,-0.108 0.374,-0.108C0.226,-0.108 0.163,-0.213 0.163,-0.35C0.163,-0.478 0.226,-0.583 0.372,-0.583C0.462,-0.583 0.533,-0.548 0.559,-0.457L0.675,-0.503C0.619,-0.632 0.51,-0.701 0.373,-0.701C0.146,-0.701 0.04,-0.534 0.04,-0.345C0.04,-0.156 0.147,0.01 0.374,0.01Z" style="fill:white;fill-rule:nonzero;"/>
        </g>
        <g transform="matrix(10,0,0,10,129.182,472.051)">
            <path d="M0.373,0.01C0.601,0.01 0.706,-0.157 0.706,-0.345C0.706,-0.533 0.601,-0.7 0.373,-0.7C0.145,-0.7 0.04,-0.533 0.04,-0.345C0.04,-0.157 0.145,0.01 0.373,0.01ZM0.373,-0.1C0.225,-0.1 0.171,-0.215 0.171,-0.345C0.171,-0.475 0.225,-0.59 0.373,-0.59C0.521,-0.59 0.575,-0.475 0.575,-0.345C0.575,-0.215 0.521,-0.1 0.373,-0.1Z" style="fill:white;fill-rule:nonzero;"/>
        </g>
        <g transform="matrix(10,0,0,10,136.643,472.051)">
            <path d="M0.502,-0.69L0.502,-0.208L0.212,-0.69L0.089,-0.69L0.089,-0L0.208,-0L0.208,-0.485L0.497,-0L0.621,-0L0.621,-0.69L0.502,-0.69Z" style="fill:white;fill-rule:nonzero;"/>
        </g>
        <g transform="matrix(10,0,0,10,143.743,472.051)">
            <path d="M0.286,0.008C0.418,0.008 0.526,-0.071 0.526,-0.201C0.526,-0.43 0.192,-0.386 0.192,-0.516C0.192,-0.56 0.23,-0.59 0.279,-0.59C0.325,-0.59 0.366,-0.563 0.39,-0.516L0.493,-0.579C0.446,-0.663 0.368,-0.7 0.283,-0.7C0.167,-0.7 0.068,-0.632 0.068,-0.51C0.068,-0.285 0.402,-0.333 0.402,-0.19C0.402,-0.141 0.362,-0.102 0.288,-0.102C0.215,-0.102 0.154,-0.14 0.145,-0.226L0.022,-0.195C0.044,-0.059 0.164,0.008 0.286,0.008Z" style="fill:white;fill-rule:nonzero;"/>
        </g>
        <g transform="matrix(10,0,0,10,149.276,472.051)">
            <path d="M0.226,-0L0.35,-0L0.35,-0.579L0.566,-0.579L0.566,-0.69L0.01,-0.69L0.01,-0.579L0.226,-0.579L0.226,-0Z" style="fill:white;fill-rule:nonzero;"/>
        </g>
        <g transform="matrix(10,0,0,10,154.388,472.051)">
            <path d="M0.006,-0L0.141,-0L0.197,-0.15L0.461,-0.15L0.516,-0L0.65,-0L0.375,-0.69L0.282,-0.69L0.006,-0ZM0.236,-0.256L0.329,-0.508L0.422,-0.256L0.236,-0.256Z" style="fill:white;fill-rule:nonzero;"/>
        </g>
        <g transform="matrix(10,0,0,10,160.946,472.051)">
            <path d="M0.502,-0.69L0.502,-0.208L0.212,-0.69L0.089,-0.69L0.089,-0L0.208,-0L0.208,-0.485L0.497,-0L0.621,-0L0.621,-0.69L0.502,-0.69Z" style="fill:white;fill-rule:nonzero;"/>
        </g>
        <g transform="matrix(10,0,0,10,168.046,472.051)">
            <path d="M0.374,0.01C0.511,0.01 0.621,-0.06 0.676,-0.189L0.561,-0.236C0.524,-0.143 0.463,-0.108 0.374,-0.108C0.226,-0.108 0.163,-0.213 0.163,-0.35C0.163,-0.478 0.226,-0.583 0.372,-0.583C0.462,-0.583 0.533,-0.548 0.559,-0.457L0.675,-0.503C0.619,-0.632 0.51,-0.701 0.373,-0.701C0.146,-0.701 0.04,-0.534 0.04,-0.345C0.04,-0.156 0.147,0.01 0.374,0.01Z" style="fill:white;fill-rule:nonzero;"/>
        </g>
        <g transform="matrix(10,0,0,10,175.038,472.051)">
            <path d="M0.089,-0L0.548,-0L0.548,-0.117L0.213,-0.117L0.213,-0.288L0.525,-0.288L0.525,-0.402L0.213,-0.402L0.213,-0.576L0.548,-0.576L0.548,-0.69L0.089,-0.69L0.089,-0Z" style="fill:white;fill-rule:nonzero;"/>
        </g>
        <g transform="matrix(10,0,0,10,181.118,472.051)">
            <path d="M0.286,0.008C0.418,0.008 0.526,-0.071 0.526,-0.201C0.526,-0.43 0.192,-0.386 0.192,-0.516C0.192,-0.56 0.23,-0.59 0.279,-0.59C0.325,-0.59 0.366,-0.563 0.39,-0.516L0.493,-0.579C0.446,-0.663 0.368,-0.7 0.283,-0.7C0.167,-0.7 0.068,-0.632 0.068,-0.51C0.068,-0.285 0.402,-0.333 0.402,-0.19C0.402,-0.141 0.362,-0.102 0.288,-0.102C0.215,-0.102 0.154,-0.14 0.145,-0.226L0.022,-0.195C0.044,-0.059 0.164,0.008 0.286,0.008Z" style="fill:white;fill-rule:nonzero;"/>
        </g>
        <g transform="matrix(10,0,0,10,189.082,472.051)">
            <path d="M0.089,-0L0.288,-0C0.52,-0 0.648,-0.125 0.648,-0.34C0.648,-0.564 0.524,-0.69 0.289,-0.69L0.089,-0.69L0.089,-0ZM0.213,-0.114L0.213,-0.576L0.287,-0.576C0.457,-0.576 0.524,-0.509 0.524,-0.345C0.524,-0.173 0.428,-0.114 0.276,-0.114L0.213,-0.114Z" style="fill:white;fill-rule:nonzero;"/>
        </g>
        <g transform="matrix(10,0,0,10,195.962,472.051)">
            <path d="M0.337,0.01C0.522,0.01 0.601,-0.1 0.601,-0.274L0.601,-0.69L0.477,-0.69L0.477,-0.283C0.477,-0.172 0.448,-0.11 0.337,-0.11C0.226,-0.11 0.197,-0.172 0.197,-0.283L0.197,-0.69L0.073,-0.69L0.073,-0.269C0.073,-0.1 0.152,0.01 0.337,0.01Z" style="fill:white;fill-rule:nonzero;"/>
        </g>
        <g transform="matrix(10,0,0,10,205.113,472.051)">
            <path d="M0.089,-0L0.288,-0C0.52,-0 0.648,-0.125 0.648,-0.34C0.648,-0.564 0.524,-0.69 0.289,-0.69L0.089,-0.69L0.089,-0ZM0.213,-0.114L0.213,-0.576L0.287,-0.576C0.457,-0.576 0.524,-0.509 0.524,-0.345C0.524,-0.173 0.428,-0.114 0.276,-0.114L0.213,-0.114Z" style="fill:white;fill-rule:nonzero;"/>
        </g>
        <g transform="matrix(10,0,0,10,211.993,472.051)">
            <path d="M0.261,-0.75L0.348,-0.75L0.498,-0.891L0.371,-0.891L0.261,-0.75ZM0.089,-0L0.548,-0L0.548,-0.117L0.213,-0.117L0.213,-0.288L0.525,-0.288L0.525,-0.402L0.213,-0.402L0.213,-0.576L0.548,-0.576L0.548,-0.69L0.089,-0.69L0.089,-0Z" style="fill:white;fill-rule:nonzero;"/>
        </g>
        <g transform="matrix(10,0,0,10,218.053,472.051)">
            <path d="M0.374,0.01C0.511,0.01 0.621,-0.06 0.676,-0.189L0.561,-0.236C0.524,-0.143 0.463,-0.108 0.374,-0.108C0.226,-0.108 0.163,-0.213 0.163,-0.35C0.163,-0.478 0.226,-0.583 0.372,-0.583C0.462,-0.583 0.533,-0.548 0.559,-0.457L0.675,-0.503C0.619,-0.632 0.51,-0.701 0.373,-0.701C0.146,-0.701 0.04,-0.534 0.04,-0.345C0.04,-0.156 0.147,0.01 0.374,0.01Z" style="fill:white;fill-rule:nonzero;"/>
        </g>
        <g transform="matrix(10,0,0,10,225.046,472.051)">
            <path d="M0.274,-0.75L0.364,-0.75L0.261,-0.891L0.134,-0.891L0.274,-0.75ZM0.089,-0L0.548,-0L0.548,-0.117L0.213,-0.117L0.213,-0.288L0.525,-0.288L0.525,-0.402L0.213,-0.402L0.213,-0.576L0.548,-0.576L0.548,-0.69L0.089,-0.69L0.089,-0Z" style="fill:white;fill-rule:nonzero;"/>
        </g>
        <g transform="matrix(10,0,0,10,231.125,472.051)">
            <path d="M0.286,0.008C0.418,0.008 0.526,-0.071 0.526,-0.201C0.526,-0.43 0.192,-0.386 0.192,-0.516C0.192,-0.56 0.23,-0.59 0.279,-0.59C0.325,-0.59 0.366,-0.563 0.39,-0.516L0.493,-0.579C0.446,-0.663 0.368,-0.7 0.283,-0.7C0.167,-0.7 0.068,-0.632 0.068,-0.51C0.068,-0.285 0.402,-0.333 0.402,-0.19C0.402,-0.141 0.362,-0.102 0.288,-0.102C0.215,-0.102 0.154,-0.14 0.145,-0.226L0.022,-0.195C0.044,-0.059 0.164,0.008 0.286,0.008Z" style="fill:white;fill-rule:nonzero;"/>
        </g>
    </g>
    <g transform="matrix(0,4.16667,4.16667,0,730.408,1498.77)">
        <rect x="93.243" y="-120.298" width="27.055" height="213.541" style="fill:none;stroke:rgb(36,109,143);stroke-width:2px;"/>
    </g>
    <g transform="matrix(4.16667,0,0,4.16667,0,1795.85)">
        <rect x="55" y="54.008" width="213.541" height="72.979" style="fill:none;stroke:rgb(36,109,143);stroke-width:2px;"/>
    </g>
    <g transform="matrix(0,4.16667,4.16667,0,1716.26,-159.346)">
        <rect x="93.243" y="-120.298" width="27.055" height="213.541" style="fill:rgb(36,109,143);"/>
    </g>
    <g transform="matrix(4.16667,0,0,4.16667,0,0)">
        <g transform="matrix(10,0,0,10,308.116,74.1025)">
            <path d="M0.089,-0L0.508,-0L0.508,-0.117L0.213,-0.117L0.213,-0.69L0.089,-0.69L0.089,-0Z" style="fill:white;fill-rule:nonzero;"/>
        </g>
        <g transform="matrix(10,0,0,10,313.385,74.1025)">
            <path d="M0.006,-0L0.141,-0L0.197,-0.15L0.461,-0.15L0.516,-0L0.65,-0L0.375,-0.69L0.282,-0.69L0.006,-0ZM0.236,-0.256L0.329,-0.508L0.422,-0.256L0.236,-0.256Z" style="fill:white;fill-rule:nonzero;"/>
        </g>
        <g transform="matrix(10,0,0,10,322.356,74.1025)">
            <path d="M0.089,-0L0.213,-0L0.213,-0.295L0.296,-0.295L0.466,-0L0.608,-0L0.416,-0.307C0.494,-0.334 0.551,-0.4 0.551,-0.487C0.551,-0.616 0.441,-0.69 0.312,-0.69L0.089,-0.69L0.089,-0ZM0.214,-0.396L0.214,-0.579L0.313,-0.579C0.384,-0.579 0.428,-0.542 0.428,-0.485C0.428,-0.433 0.389,-0.399 0.323,-0.396L0.214,-0.396Z" style="fill:white;fill-rule:nonzero;"/>
        </g>
        <g transform="matrix(10,0,0,10,328.548,74.1025)">
            <path d="M0.089,-0L0.548,-0L0.548,-0.117L0.213,-0.117L0.213,-0.288L0.525,-0.288L0.525,-0.402L0.213,-0.402L0.213,-0.576L0.548,-0.576L0.548,-0.69L0.089,-0.69L0.089,-0Z" style="fill:white;fill-rule:nonzero;"/>
        </g>
        <g transform="matrix(10,0,0,10,334.628,74.1025)">
            <path d="M0.089,-0L0.508,-0L0.508,-0.117L0.213,-0.117L0.213,-0.69L0.089,-0.69L0.089,-0Z" style="fill:white;fill-rule:nonzero;"/>
        </g>
        <g transform="matrix(10,0,0,10,339.897,74.1025)">
            <path d="M0.006,-0L0.141,-0L0.197,-0.15L0.461,-0.15L0.516,-0L0.65,-0L0.375,-0.69L0.282,-0.69L0.006,-0ZM0.236,-0.256L0.329,-0.508L0.422,-0.256L0.236,-0.256Z" style="fill:white;fill-rule:nonzero;"/>
        </g>
        <g transform="matrix(10,0,0,10,345.805,74.1025)">
            <path d="M0.226,-0L0.35,-0L0.35,-0.579L0.566,-0.579L0.566,-0.69L0.01,-0.69L0.01,-0.579L0.226,-0.579L0.226,-0Z" style="fill:white;fill-rule:nonzero;"/>
        </g>
        <g transform="matrix(10,0,0,10,351.567,74.1025)">
            <rect x="0.089" y="-0.69" width="0.124" height="0.69" style="fill:white;fill-rule:nonzero;"/>
        </g>
        <g transform="matrix(10,0,0,10,354.586,74.1025)">
            <path d="M0.373,0.01C0.601,0.01 0.706,-0.157 0.706,-0.345C0.706,-0.533 0.601,-0.7 0.373,-0.7C0.145,-0.7 0.04,-0.533 0.04,-0.345C0.04,-0.157 0.145,0.01 0.373,0.01ZM0.373,-0.1C0.225,-0.1 0.171,-0.215 0.171,-0.345C0.171,-0.475 0.225,-0.59 0.373,-0.59C0.521,-0.59 0.575,-0.475 0.575,-0.345C0.575,-0.215 0.521,-0.1 0.373,-0.1Z" style="fill:white;fill-rule:nonzero;"/>
        </g>
        <g transform="matrix(10,0,0,10,362.047,74.1025)">
            <path d="M0.502,-0.69L0.502,-0.208L0.212,-0.69L0.089,-0.69L0.089,-0L0.208,-0L0.208,-0.485L0.497,-0L0.621,-0L0.621,-0.69L0.502,-0.69Z" style="fill:white;fill-rule:nonzero;"/>
        </g>
        <g transform="matrix(10,0,0,10,371.56,74.1025)">
            <path d="M0.283,-0.75L0.373,-0.75L0.271,-0.891L0.143,-0.891L0.283,-0.75ZM0.006,-0L0.141,-0L0.197,-0.15L0.461,-0.15L0.516,-0L0.65,-0L0.375,-0.69L0.282,-0.69L0.006,-0ZM0.236,-0.256L0.329,-0.508L0.422,-0.256L0.236,-0.256Z" style="fill:white;fill-rule:nonzero;"/>
        </g>
        <g transform="matrix(10,0,0,10,380.53,74.1025)">
            <path d="M0.089,-0L0.508,-0L0.508,-0.117L0.213,-0.117L0.213,-0.69L0.089,-0.69L0.089,-0Z" style="fill:white;fill-rule:nonzero;"/>
        </g>
        <g transform="matrix(10,0,0,10,385.8,74.1025)">
            <path d="M0.006,-0L0.141,-0L0.197,-0.15L0.461,-0.15L0.516,-0L0.65,-0L0.375,-0.69L0.282,-0.69L0.006,-0ZM0.236,-0.256L0.329,-0.508L0.422,-0.256L0.236,-0.256Z" style="fill:white;fill-rule:nonzero;"/>
        </g>
        <g transform="matrix(10,0,0,10,394.77,74.1025)">
            <path d="M0.089,-0L0.212,-0L0.212,-0.286L0.305,-0.286C0.446,-0.286 0.549,-0.357 0.549,-0.486C0.549,-0.616 0.446,-0.69 0.305,-0.69L0.089,-0.69L0.089,-0ZM0.212,-0.402L0.212,-0.574L0.305,-0.574C0.389,-0.574 0.426,-0.542 0.426,-0.486C0.426,-0.431 0.39,-0.402 0.305,-0.402L0.212,-0.402Z" style="fill:white;fill-rule:nonzero;"/>
        </g>
        <g transform="matrix(10,0,0,10,400.567,74.1025)">
            <path d="M0.089,-0L0.548,-0L0.548,-0.117L0.213,-0.117L0.213,-0.288L0.525,-0.288L0.525,-0.402L0.213,-0.402L0.213,-0.576L0.548,-0.576L0.548,-0.69L0.089,-0.69L0.089,-0Z" style="fill:white;fill-rule:nonzero;"/>
        </g>
        <g transform="matrix(10,0,0,10,406.646,74.1025)">
            <path d="M0.089,-0L0.213,-0L0.213,-0.295L0.296,-0.295L0.466,-0L0.608,-0L0.416,-0.307C0.494,-0.334 0.551,-0.4 0.551,-0.487C0.551,-0.616 0.441,-0.69 0.312,-0.69L0.089,-0.69L0.089,-0ZM0.214,-0.396L0.214,-0.579L0.313,-0.579C0.384,-0.579 0.428,-0.542 0.428,-0.485C0.428,-0.433 0.389,-0.399 0.323,-0.396L0.214,-0.396Z" style="fill:white;fill-rule:nonzero;"/>
        </g>
        <g transform="matrix(10,0,0,10,412.838,74.1025)">
            <path d="M0.286,0.008C0.418,0.008 0.526,-0.071 0.526,-0.201C0.526,-0.43 0.192,-0.386 0.192,-0.516C0.192,-0.56 0.23,-0.59 0.279,-0.59C0.325,-0.59 0.366,-0.563 0.39,-0.516L0.493,-0.579C0.446,-0.663 0.368,-0.7 0.283,-0.7C0.167,-0.7 0.068,-0.632 0.068,-0.51C0.068,-0.285 0.402,-0.333 0.402,-0.19C0.402,-0.141 0.362,-0.102 0.288,-0.102C0.215,-0.102 0.154,-0.14 0.145,-0.226L0.022,-0.195C0.044,-0.059 0.164,0.008 0.286,0.008Z" style="fill:white;fill-rule:nonzero;"/>
        </g>
        <g transform="matrix(10,0,0,10,418.371,74.1025)">
            <path d="M0.373,0.01C0.601,0.01 0.706,-0.157 0.706,-0.345C0.706,-0.533 0.601,-0.7 0.373,-0.7C0.145,-0.7 0.04,-0.533 0.04,-0.345C0.04,-0.157 0.145,0.01 0.373,0.01ZM0.373,-0.1C0.225,-0.1 0.171,-0.215 0.171,-0.345C0.171,-0.475 0.225,-0.59 0.373,-0.59C0.521,-0.59 0.575,-0.475 0.575,-0.345C0.575,-0.215 0.521,-0.1 0.373,-0.1Z" style="fill:white;fill-rule:nonzero;"/>
        </g>
        <g transform="matrix(10,0,0,10,425.832,74.1025)">
            <path d="M0.502,-0.69L0.502,-0.208L0.212,-0.69L0.089,-0.69L0.089,-0L0.208,-0L0.208,-0.485L0.497,-0L0.621,-0L0.621,-0.69L0.502,-0.69Z" style="fill:white;fill-rule:nonzero;"/>
        </g>
        <g transform="matrix(10,0,0,10,432.932,74.1025)">
            <path d="M0.502,-0.69L0.502,-0.208L0.212,-0.69L0.089,-0.69L0.089,-0L0.208,-0L0.208,-0.485L0.497,-0L0.621,-0L0.621,-0.69L0.502,-0.69Z" style="fill:white;fill-rule:nonzero;"/>
        </g>
        <g transform="matrix(10,0,0,10,440.033,74.1025)">
            <path d="M0.089,-0L0.548,-0L0.548,-0.117L0.213,-0.117L0.213,-0.288L0.525,-0.288L0.525,-0.402L0.213,-0.402L0.213,-0.576L0.548,-0.576L0.548,-0.69L0.089,-0.69L0.089,-0Z" style="fill:white;fill-rule:nonzero;"/>
        </g>
        <g transform="matrix(10,0,0,10,448.525,74.1025)">
            <path d="M0.622,-0.69L0.439,-0.199L0.256,-0.69L0.089,-0.69L0.089,-0L0.208,-0L0.208,-0.515L0.379,-0.06L0.499,-0.06L0.67,-0.515L0.67,-0L0.789,-0L0.789,-0.69L0.622,-0.69Z" style="fill:white;fill-rule:nonzero;"/>
        </g>
        <g transform="matrix(10,0,0,10,457.305,74.1025)">
            <path d="M0.006,-0L0.141,-0L0.197,-0.15L0.461,-0.15L0.516,-0L0.65,-0L0.375,-0.69L0.282,-0.69L0.006,-0ZM0.236,-0.256L0.329,-0.508L0.422,-0.256L0.236,-0.256Z" style="fill:white;fill-rule:nonzero;"/>
        </g>
        <g transform="matrix(10,0,0,10,463.863,74.1025)">
            <path d="M0.089,-0L0.508,-0L0.508,-0.117L0.213,-0.117L0.213,-0.69L0.089,-0.69L0.089,-0Z" style="fill:white;fill-rule:nonzero;"/>
        </g>
        <g transform="matrix(10,0,0,10,469.132,74.1025)">
            <path d="M0.006,-0L0.141,-0L0.197,-0.15L0.461,-0.15L0.516,-0L0.65,-0L0.375,-0.69L0.282,-0.69L0.006,-0ZM0.236,-0.256L0.329,-0.508L0.422,-0.256L0.236,-0.256Z" style="fill:white;fill-rule:nonzero;"/>
        </g>
        <g transform="matrix(10,0,0,10,475.69,74.1025)">
            <path d="M0.089,-0L0.288,-0C0.52,-0 0.648,-0.125 0.648,-0.34C0.648,-0.564 0.524,-0.69 0.289,-0.69L0.089,-0.69L0.089,-0ZM0.213,-0.114L0.213,-0.576L0.287,-0.576C0.457,-0.576 0.524,-0.509 0.524,-0.345C0.524,-0.173 0.428,-0.114 0.276,-0.114L0.213,-0.114Z" style="fill:white;fill-rule:nonzero;"/>
        </g>
        <g transform="matrix(10,0,0,10,482.57,74.1025)">
            <path d="M0.089,-0L0.548,-0L0.548,-0.117L0.213,-0.117L0.213,-0.288L0.525,-0.288L0.525,-0.402L0.213,-0.402L0.213,-0.576L0.548,-0.576L0.548,-0.69L0.089,-0.69L0.089,-0Z" style="fill:white;fill-rule:nonzero;"/>
        </g>
    </g>
    <g transform="matrix(0,4.16667,4.16667,0,1716.26,-159.346)">
        <rect x="93.243" y="-120.298" width="27.055" height="213.541" style="fill:none;stroke:rgb(36,109,143);stroke-width:2px;"/>
    </g>
    <g transform="matrix(4.16667,0,0,4.16667,0,-1435.16)">
        <rect x="291.729" y="431.441" width="213.541" height="93.557" style="fill:none;stroke:rgb(36,109,143);stroke-width:2px;"/>
    </g>
    <g transform="matrix(0,4.16667,4.16667,0,2684.4,-159.346)">
        <rect x="93.243" y="-120.298" width="27.055" height="213.541" style="fill:rgb(36,109,143);"/>
    </g>
    <g transform="matrix(4.16667,0,0,4.16667,0,0)">
        <g transform="matrix(10,0,0,10,575.751,74.1025)">
            <path d="M0.089,-0L0.508,-0L0.508,-0.117L0.213,-0.117L0.213,-0.69L0.089,-0.69L0.089,-0Z" style="fill:white;fill-rule:nonzero;"/>
        </g>
        <g transform="matrix(10,0,0,10,580.942,74.1025)">
            <path d="M0.089,-0L0.548,-0L0.548,-0.117L0.213,-0.117L0.213,-0.288L0.525,-0.288L0.525,-0.402L0.213,-0.402L0.213,-0.576L0.548,-0.576L0.548,-0.69L0.089,-0.69L0.089,-0Z" style="fill:white;fill-rule:nonzero;"/>
        </g>
        <g transform="matrix(10,0,0,10,589.435,74.1025)">
            <path d="M0.286,0.008C0.418,0.008 0.526,-0.071 0.526,-0.201C0.526,-0.43 0.192,-0.386 0.192,-0.516C0.192,-0.56 0.23,-0.59 0.279,-0.59C0.325,-0.59 0.366,-0.563 0.39,-0.516L0.493,-0.579C0.446,-0.663 0.368,-0.7 0.283,-0.7C0.167,-0.7 0.068,-0.632 0.068,-0.51C0.068,-0.285 0.402,-0.333 0.402,-0.19C0.402,-0.141 0.362,-0.102 0.288,-0.102C0.215,-0.102 0.154,-0.14 0.145,-0.226L0.022,-0.195C0.044,-0.059 0.164,0.008 0.286,0.008Z" style="fill:white;fill-rule:nonzero;"/>
        </g>
        <g transform="matrix(10,0,0,10,594.796,74.1025)">
            <path d="M0.258,-0L0.387,-0L0.387,-0.269L0.645,-0.69L0.494,-0.69L0.321,-0.388L0.149,-0.69L-0.001,-0.69L0.258,-0.269L0.258,-0Z" style="fill:white;fill-rule:nonzero;"/>
        </g>
        <g transform="matrix(10,0,0,10,601.047,74.1025)">
            <path d="M0.286,0.008C0.418,0.008 0.526,-0.071 0.526,-0.201C0.526,-0.43 0.192,-0.386 0.192,-0.516C0.192,-0.56 0.23,-0.59 0.279,-0.59C0.325,-0.59 0.366,-0.563 0.39,-0.516L0.493,-0.579C0.446,-0.663 0.368,-0.7 0.283,-0.7C0.167,-0.7 0.068,-0.632 0.068,-0.51C0.068,-0.285 0.402,-0.333 0.402,-0.19C0.402,-0.141 0.362,-0.102 0.288,-0.102C0.215,-0.102 0.154,-0.14 0.145,-0.226L0.022,-0.195C0.044,-0.059 0.164,0.008 0.286,0.008Z" style="fill:white;fill-rule:nonzero;"/>
        </g>
        <g transform="matrix(10,0,0,10,606.58,74.1025)">
            <path d="M0.226,-0L0.35,-0L0.35,-0.579L0.566,-0.579L0.566,-0.69L0.01,-0.69L0.01,-0.579L0.226,-0.579L0.226,-0Z" style="fill:white;fill-rule:nonzero;"/>
        </g>
        <g transform="matrix(10,0,0,10,612.342,74.1025)">
            <path d="M0.274,-0.75L0.364,-0.75L0.261,-0.891L0.134,-0.891L0.274,-0.75ZM0.089,-0L0.548,-0L0.548,-0.117L0.213,-0.117L0.213,-0.288L0.525,-0.288L0.525,-0.402L0.213,-0.402L0.213,-0.576L0.548,-0.576L0.548,-0.69L0.089,-0.69L0.089,-0Z" style="fill:white;fill-rule:nonzero;"/>
        </g>
        <g transform="matrix(10,0,0,10,618.422,74.1025)">
            <path d="M0.622,-0.69L0.439,-0.199L0.256,-0.69L0.089,-0.69L0.089,-0L0.208,-0L0.208,-0.515L0.379,-0.06L0.499,-0.06L0.67,-0.515L0.67,-0L0.789,-0L0.789,-0.69L0.622,-0.69Z" style="fill:white;fill-rule:nonzero;"/>
        </g>
        <g transform="matrix(10,0,0,10,627.202,74.1025)">
            <path d="M0.089,-0L0.548,-0L0.548,-0.117L0.213,-0.117L0.213,-0.288L0.525,-0.288L0.525,-0.402L0.213,-0.402L0.213,-0.576L0.548,-0.576L0.548,-0.69L0.089,-0.69L0.089,-0Z" style="fill:white;fill-rule:nonzero;"/>
        </g>
        <g transform="matrix(10,0,0,10,635.694,74.1025)">
            <path d="M0.286,0.008C0.418,0.008 0.526,-0.071 0.526,-0.201C0.526,-0.43 0.192,-0.386 0.192,-0.516C0.192,-0.56 0.23,-0.59 0.279,-0.59C0.325,-0.59 0.366,-0.563 0.39,-0.516L0.493,-0.579C0.446,-0.663 0.368,-0.7 0.283,-0.7C0.167,-0.7 0.068,-0.632 0.068,-0.51C0.068,-0.285 0.402,-0.333 0.402,-0.19C0.402,-0.141 0.362,-0.102 0.288,-0.102C0.215,-0.102 0.154,-0.14 0.145,-0.226L0.022,-0.195C0.044,-0.059 0.164,0.008 0.286,0.008Z" style="fill:white;fill-rule:nonzero;"/>
        </g>
        <g transform="matrix(10,0,0,10,641.227,74.1025)">
            <path d="M0.373,0.01C0.601,0.01 0.706,-0.157 0.706,-0.345C0.706,-0.533 0.601,-0.7 0.373,-0.7C0.145,-0.7 0.04,-0.533 0.04,-0.345C0.04,-0.157 0.145,0.01 0.373,0.01ZM0.373,-0.1C0.225,-0.1 0.171,-0.215 0.171,-0.345C0.171,-0.475 0.225,-0.59 0.373,-0.59C0.521,-0.59 0.575,-0.475 0.575,-0.345C0.575,-0.215 0.521,-0.1 0.373,-0.1Z" style="fill:white;fill-rule:nonzero;"/>
        </g>
        <g transform="matrix(10,0,0,10,648.688,74.1025)">
            <rect x="0.089" y="-0.69" width="0.124" height="0.69" style="fill:white;fill-rule:nonzero;"/>
        </g>
        <g transform="matrix(10,0,0,10,651.706,74.1025)">
            <path d="M0.41,-0.373L0.41,-0.273L0.562,-0.273C0.558,-0.161 0.482,-0.101 0.374,-0.101C0.226,-0.101 0.163,-0.213 0.163,-0.35C0.163,-0.478 0.226,-0.593 0.372,-0.593C0.46,-0.593 0.532,-0.551 0.564,-0.457L0.674,-0.503C0.618,-0.632 0.509,-0.701 0.373,-0.701C0.145,-0.701 0.04,-0.534 0.04,-0.345C0.04,-0.156 0.147,0.01 0.374,0.01C0.466,0.01 0.541,-0.032 0.578,-0.097L0.589,-0L0.687,-0L0.687,-0.373L0.41,-0.373Z" style="fill:white;fill-rule:nonzero;"/>
        </g>
        <g transform="matrix(10,0,0,10,659.197,74.1025)">
            <path d="M0.502,-0.69L0.502,-0.208L0.212,-0.69L0.089,-0.69L0.089,-0L0.208,-0L0.208,-0.485L0.497,-0L0.621,-0L0.621,-0.69L0.502,-0.69Z" style="fill:white;fill-rule:nonzero;"/>
        </g>
        <g transform="matrix(10,0,0,10,666.297,74.1025)">
            <path d="M0.006,-0L0.141,-0L0.197,-0.15L0.461,-0.15L0.516,-0L0.65,-0L0.375,-0.69L0.282,-0.69L0.006,-0ZM0.236,-0.256L0.329,-0.508L0.422,-0.256L0.236,-0.256Z" style="fill:white;fill-rule:nonzero;"/>
        </g>
        <g transform="matrix(10,0,0,10,672.855,74.1025)">
            <path d="M0.502,-0.69L0.502,-0.208L0.212,-0.69L0.089,-0.69L0.089,-0L0.208,-0L0.208,-0.485L0.497,-0L0.621,-0L0.621,-0.69L0.502,-0.69Z" style="fill:white;fill-rule:nonzero;"/>
        </g>
        <g transform="matrix(10,0,0,10,679.956,74.1025)">
            <path d="M0.226,-0L0.35,-0L0.35,-0.579L0.566,-0.579L0.566,-0.69L0.01,-0.69L0.01,-0.579L0.226,-0.579L0.226,-0Z" style="fill:white;fill-rule:nonzero;"/>
        </g>
    </g>
    <g transform="matrix(0,4.16667,4.16667,0,2684.4,-159.346)">
        <rect x="93.243" y="-120.298" width="27.055" height="213.541" style="fill:none;stroke:rgb(36,109,143);stroke-width:2px;"/>
    </g>
    <g transform="matrix(4.16667,0,0,4.16667,0,-963.05)">
        <rect x="523.959" y="318.197" width="213.541" height="206.738" style="fill:none;stroke:rgb(36,109,143);stroke-width:2px;"/>
    </g>
    <g transform="matrix(0,4.16667,4.16667,0,1716.26,423.445)">
        <rect x="93.243" y="-120.298" width="27.055" height="213.541" style="fill:rgb(36,109,143);"/>
    </g>
    <g transform="matrix(4.16667,0,0,4.16667,0,0)">
        <g transform="matrix(10,0,0,10,342.008,213.972)">
            <path d="M0.089,-0L0.508,-0L0.508,-0.117L0.213,-0.117L0.213,-0.69L0.089,-0.69L0.089,-0Z" style="fill:white;fill-rule:nonzero;"/>
        </g>
        <g transform="matrix(10,0,0,10,347.277,213.972)">
            <path d="M0.006,-0L0.141,-0L0.197,-0.15L0.461,-0.15L0.516,-0L0.65,-0L0.375,-0.69L0.282,-0.69L0.006,-0ZM0.236,-0.256L0.329,-0.508L0.422,-0.256L0.236,-0.256Z" style="fill:white;fill-rule:nonzero;"/>
        </g>
        <g transform="matrix(10,0,0,10,356.247,213.972)">
            <path d="M0.089,-0L0.213,-0L0.213,-0.288L0.535,-0.288L0.535,-0.402L0.213,-0.402L0.213,-0.576L0.578,-0.576L0.578,-0.69L0.089,-0.69L0.089,-0Z" style="fill:white;fill-rule:nonzero;"/>
        </g>
        <g transform="matrix(10,0,0,10,361.735,213.972)">
            <path d="M0.006,-0L0.141,-0L0.197,-0.15L0.461,-0.15L0.516,-0L0.65,-0L0.375,-0.69L0.282,-0.69L0.006,-0ZM0.236,-0.256L0.329,-0.508L0.422,-0.256L0.236,-0.256Z" style="fill:white;fill-rule:nonzero;"/>
        </g>
        <g transform="matrix(10,0,0,10,368.293,213.972)">
            <path d="M0.622,-0.69L0.439,-0.199L0.256,-0.69L0.089,-0.69L0.089,-0L0.208,-0L0.208,-0.515L0.379,-0.06L0.499,-0.06L0.67,-0.515L0.67,-0L0.789,-0L0.789,-0.69L0.622,-0.69Z" style="fill:white;fill-rule:nonzero;"/>
        </g>
        <g transform="matrix(10,0,0,10,377.073,213.972)">
            <rect x="0.089" y="-0.69" width="0.124" height="0.69" style="fill:white;fill-rule:nonzero;"/>
        </g>
        <g transform="matrix(10,0,0,10,380.09,213.972)">
            <path d="M0.089,-0L0.508,-0L0.508,-0.117L0.213,-0.117L0.213,-0.69L0.089,-0.69L0.089,-0Z" style="fill:white;fill-rule:nonzero;"/>
        </g>
        <g transform="matrix(10,0,0,10,385.281,213.972)">
            <path d="M0.089,-0L0.508,-0L0.508,-0.117L0.213,-0.117L0.213,-0.69L0.089,-0.69L0.089,-0Z" style="fill:white;fill-rule:nonzero;"/>
        </g>
        <g transform="matrix(10,0,0,10,390.472,213.972)">
            <path d="M0.089,-0L0.548,-0L0.548,-0.117L0.213,-0.117L0.213,-0.288L0.525,-0.288L0.525,-0.402L0.213,-0.402L0.213,-0.576L0.548,-0.576L0.548,-0.69L0.089,-0.69L0.089,-0Z" style="fill:white;fill-rule:nonzero;"/>
        </g>
        <g transform="matrix(10,0,0,10,398.963,213.972)">
            <path d="M0.089,-0L0.288,-0C0.52,-0 0.648,-0.125 0.648,-0.34C0.648,-0.564 0.524,-0.69 0.289,-0.69L0.089,-0.69L0.089,-0ZM0.213,-0.114L0.213,-0.576L0.287,-0.576C0.457,-0.576 0.524,-0.509 0.524,-0.345C0.524,-0.173 0.428,-0.114 0.276,-0.114L0.213,-0.114Z" style="fill:white;fill-rule:nonzero;"/>
        </g>
        <g transform="matrix(10,0,0,10,405.843,213.972)">
            <path d="M0.337,0.01C0.522,0.01 0.601,-0.1 0.601,-0.274L0.601,-0.69L0.477,-0.69L0.477,-0.283C0.477,-0.172 0.448,-0.11 0.337,-0.11C0.226,-0.11 0.197,-0.172 0.197,-0.283L0.197,-0.69L0.073,-0.69L0.073,-0.269C0.073,-0.1 0.152,0.01 0.337,0.01Z" style="fill:white;fill-rule:nonzero;"/>
        </g>
        <g transform="matrix(10,0,0,10,414.994,213.972)">
            <path d="M0.089,-0L0.212,-0L0.212,-0.286L0.305,-0.286C0.446,-0.286 0.549,-0.357 0.549,-0.486C0.549,-0.616 0.446,-0.69 0.305,-0.69L0.089,-0.69L0.089,-0ZM0.212,-0.402L0.212,-0.574L0.305,-0.574C0.389,-0.574 0.426,-0.542 0.426,-0.486C0.426,-0.431 0.39,-0.402 0.305,-0.402L0.212,-0.402Z" style="fill:white;fill-rule:nonzero;"/>
        </g>
        <g transform="matrix(10,0,0,10,420.79,213.972)">
            <path d="M0.089,-0L0.213,-0L0.213,-0.295L0.296,-0.295L0.466,-0L0.608,-0L0.416,-0.307C0.494,-0.334 0.551,-0.4 0.551,-0.487C0.551,-0.616 0.441,-0.69 0.312,-0.69L0.089,-0.69L0.089,-0ZM0.214,-0.396L0.214,-0.579L0.313,-0.579C0.384,-0.579 0.428,-0.542 0.428,-0.485C0.428,-0.433 0.389,-0.399 0.323,-0.396L0.214,-0.396Z" style="fill:white;fill-rule:nonzero;"/>
        </g>
        <g transform="matrix(10,0,0,10,426.933,213.972)">
            <path d="M0.373,0.01C0.601,0.01 0.706,-0.157 0.706,-0.345C0.706,-0.533 0.601,-0.7 0.373,-0.7C0.145,-0.7 0.04,-0.533 0.04,-0.345C0.04,-0.157 0.145,0.01 0.373,0.01ZM0.373,-0.1C0.225,-0.1 0.171,-0.215 0.171,-0.345C0.171,-0.475 0.225,-0.59 0.373,-0.59C0.521,-0.59 0.575,-0.475 0.575,-0.345C0.575,-0.215 0.521,-0.1 0.373,-0.1Z" style="fill:white;fill-rule:nonzero;"/>
        </g>
        <g transform="matrix(10,0,0,10,434.394,213.972)">
            <path d="M0.374,0.01C0.511,0.01 0.621,-0.06 0.676,-0.189L0.561,-0.236C0.524,-0.143 0.463,-0.108 0.374,-0.108C0.226,-0.108 0.163,-0.213 0.163,-0.35C0.163,-0.478 0.226,-0.583 0.372,-0.583C0.462,-0.583 0.533,-0.548 0.559,-0.457L0.675,-0.503C0.619,-0.632 0.51,-0.701 0.373,-0.701C0.146,-0.701 0.04,-0.534 0.04,-0.345C0.04,-0.156 0.147,0.01 0.374,0.01Z" style="fill:white;fill-rule:nonzero;"/>
        </g>
        <g transform="matrix(10,0,0,10,441.386,213.972)">
            <path d="M0.089,-0L0.213,-0L0.213,-0.288L0.515,-0.288L0.515,-0L0.639,-0L0.639,-0.69L0.515,-0.69L0.515,-0.402L0.213,-0.402L0.213,-0.69L0.089,-0.69L0.089,-0Z" style="fill:white;fill-rule:nonzero;"/>
        </g>
        <g transform="matrix(10,0,0,10,448.667,213.972)">
            <path d="M0.089,-0L0.548,-0L0.548,-0.117L0.213,-0.117L0.213,-0.288L0.525,-0.288L0.525,-0.402L0.213,-0.402L0.213,-0.576L0.548,-0.576L0.548,-0.69L0.089,-0.69L0.089,-0Z" style="fill:white;fill-rule:nonzero;"/>
        </g>
    </g>
    <g transform="matrix(0,4.16667,4.16667,0,1716.26,423.445)">
        <rect x="93.243" y="-120.298" width="27.055" height="213.541" style="fill:none;stroke:rgb(36,109,143);stroke-width:2px;"/>
    </g>
    <g transform="matrix(4.16667,0,0,4.16667,0,-311.092)">
        <rect x="291.729" y="301.534" width="213.541" height="83.594" style="fill:none;stroke:rgb(36,109,143);stroke-width:2px;"/>
    </g>
    <g transform="matrix(0,4.16667,4.16667,0,1716.26,1499.04)">
        <rect x="93.243" y="-120.298" width="27.055" height="213.541" style="fill:rgb(36,109,143);"/>
    </g>
    <g transform="matrix(4.16667,0,0,4.16667,0,-2.27374e-13)">
        <g transform="matrix(10,0,0,10,312.909,466.114)">
            <path d="M0.089,-0L0.508,-0L0.508,-0.117L0.213,-0.117L0.213,-0.69L0.089,-0.69L0.089,-0Z" style="fill:white;fill-rule:nonzero;"/>
        </g>
        <g transform="matrix(10,0,0,10,318.177,466.114)">
            <path d="M0.006,-0L0.141,-0L0.197,-0.15L0.461,-0.15L0.516,-0L0.65,-0L0.375,-0.69L0.282,-0.69L0.006,-0ZM0.236,-0.256L0.329,-0.508L0.422,-0.256L0.236,-0.256Z" style="fill:white;fill-rule:nonzero;"/>
        </g>
        <g transform="matrix(10,0,0,10,327.148,466.114)">
            <path d="M0.286,0.008C0.418,0.008 0.526,-0.071 0.526,-0.201C0.526,-0.43 0.192,-0.386 0.192,-0.516C0.192,-0.56 0.23,-0.59 0.279,-0.59C0.325,-0.59 0.366,-0.563 0.39,-0.516L0.493,-0.579C0.446,-0.663 0.368,-0.7 0.283,-0.7C0.167,-0.7 0.068,-0.632 0.068,-0.51C0.068,-0.285 0.402,-0.333 0.402,-0.19C0.402,-0.141 0.362,-0.102 0.288,-0.102C0.215,-0.102 0.154,-0.14 0.145,-0.226L0.022,-0.195C0.044,-0.059 0.164,0.008 0.286,0.008Z" style="fill:white;fill-rule:nonzero;"/>
        </g>
        <g transform="matrix(10,0,0,10,332.7,466.114)">
            <rect x="0.089" y="-0.69" width="0.124" height="0.69" style="fill:white;fill-rule:nonzero;"/>
        </g>
        <g transform="matrix(10,0,0,10,335.718,466.114)">
            <path d="M0.226,-0L0.35,-0L0.35,-0.579L0.566,-0.579L0.566,-0.69L0.01,-0.69L0.01,-0.579L0.226,-0.579L0.226,-0Z" style="fill:white;fill-rule:nonzero;"/>
        </g>
        <g transform="matrix(10,0,0,10,341.509,466.114)">
            <path d="M0.337,0.01C0.522,0.01 0.601,-0.1 0.601,-0.274L0.601,-0.69L0.477,-0.69L0.477,-0.283C0.477,-0.172 0.448,-0.11 0.337,-0.11C0.226,-0.11 0.197,-0.172 0.197,-0.283L0.197,-0.69L0.073,-0.69L0.073,-0.269C0.073,-0.1 0.152,0.01 0.337,0.01Z" style="fill:white;fill-rule:nonzero;"/>
        </g>
        <g transform="matrix(10,0,0,10,347.979,466.114)">
            <path d="M0.006,-0L0.141,-0L0.197,-0.15L0.461,-0.15L0.516,-0L0.65,-0L0.375,-0.69L0.282,-0.69L0.006,-0ZM0.236,-0.256L0.329,-0.508L0.422,-0.256L0.236,-0.256Z" style="fill:white;fill-rule:nonzero;"/>
        </g>
        <g transform="matrix(10,0,0,10,353.887,466.114)">
            <path d="M0.226,-0L0.35,-0L0.35,-0.579L0.566,-0.579L0.566,-0.69L0.01,-0.69L0.01,-0.579L0.226,-0.579L0.226,-0Z" style="fill:white;fill-rule:nonzero;"/>
        </g>
        <g transform="matrix(10,0,0,10,359.649,466.114)">
            <rect x="0.089" y="-0.69" width="0.124" height="0.69" style="fill:white;fill-rule:nonzero;"/>
        </g>
        <g transform="matrix(10,0,0,10,362.667,466.114)">
            <path d="M0.373,0.01C0.601,0.01 0.706,-0.157 0.706,-0.345C0.706,-0.533 0.601,-0.7 0.373,-0.7C0.145,-0.7 0.04,-0.533 0.04,-0.345C0.04,-0.157 0.145,0.01 0.373,0.01ZM0.373,-0.1C0.225,-0.1 0.171,-0.215 0.171,-0.345C0.171,-0.475 0.225,-0.59 0.373,-0.59C0.521,-0.59 0.575,-0.475 0.575,-0.345C0.575,-0.215 0.521,-0.1 0.373,-0.1Z" style="fill:white;fill-rule:nonzero;"/>
        </g>
        <g transform="matrix(10,0,0,10,370.128,466.114)">
            <path d="M0.502,-0.69L0.502,-0.208L0.212,-0.69L0.089,-0.69L0.089,-0L0.208,-0L0.208,-0.485L0.497,-0L0.621,-0L0.621,-0.69L0.502,-0.69Z" style="fill:white;fill-rule:nonzero;"/>
        </g>
        <g transform="matrix(10,0,0,10,379.64,466.114)">
            <path d="M0.089,-0L0.212,-0L0.212,-0.286L0.305,-0.286C0.446,-0.286 0.549,-0.357 0.549,-0.486C0.549,-0.616 0.446,-0.69 0.305,-0.69L0.089,-0.69L0.089,-0ZM0.212,-0.402L0.212,-0.574L0.305,-0.574C0.389,-0.574 0.426,-0.542 0.426,-0.486C0.426,-0.431 0.39,-0.402 0.305,-0.402L0.212,-0.402Z" style="fill:white;fill-rule:nonzero;"/>
        </g>
        <g transform="matrix(10,0,0,10,385.437,466.114)">
            <path d="M0.089,-0L0.213,-0L0.213,-0.295L0.296,-0.295L0.466,-0L0.608,-0L0.416,-0.307C0.494,-0.334 0.551,-0.4 0.551,-0.487C0.551,-0.616 0.441,-0.69 0.312,-0.69L0.089,-0.69L0.089,-0ZM0.214,-0.396L0.214,-0.579L0.313,-0.579C0.384,-0.579 0.428,-0.542 0.428,-0.485C0.428,-0.433 0.389,-0.399 0.323,-0.396L0.214,-0.396Z" style="fill:white;fill-rule:nonzero;"/>
        </g>
        <g transform="matrix(10,0,0,10,391.579,466.114)">
            <path d="M0.373,0.01C0.601,0.01 0.706,-0.157 0.706,-0.345C0.706,-0.533 0.601,-0.7 0.373,-0.7C0.145,-0.7 0.04,-0.533 0.04,-0.345C0.04,-0.157 0.145,0.01 0.373,0.01ZM0.373,-0.1C0.225,-0.1 0.171,-0.215 0.171,-0.345C0.171,-0.475 0.225,-0.59 0.373,-0.59C0.521,-0.59 0.575,-0.475 0.575,-0.345C0.575,-0.215 0.521,-0.1 0.373,-0.1Z" style="fill:white;fill-rule:nonzero;"/>
        </g>
        <g transform="matrix(10,0,0,10,399.041,466.114)">
            <path d="M0.089,-0L0.213,-0L0.213,-0.288L0.535,-0.288L0.535,-0.402L0.213,-0.402L0.213,-0.576L0.578,-0.576L0.578,-0.69L0.089,-0.69L0.089,-0Z" style="fill:white;fill-rule:nonzero;"/>
        </g>
        <g transform="matrix(10,0,0,10,405.071,466.114)">
            <path d="M0.089,-0L0.548,-0L0.548,-0.117L0.213,-0.117L0.213,-0.288L0.525,-0.288L0.525,-0.402L0.213,-0.402L0.213,-0.576L0.548,-0.576L0.548,-0.69L0.089,-0.69L0.089,-0Z" style="fill:white;fill-rule:nonzero;"/>
        </g>
        <g transform="matrix(10,0,0,10,411.15,466.114)">
            <path d="M0.286,0.008C0.418,0.008 0.526,-0.071 0.526,-0.201C0.526,-0.43 0.192,-0.386 0.192,-0.516C0.192,-0.56 0.23,-0.59 0.279,-0.59C0.325,-0.59 0.366,-0.563 0.39,-0.516L0.493,-0.579C0.446,-0.663 0.368,-0.7 0.283,-0.7C0.167,-0.7 0.068,-0.632 0.068,-0.51C0.068,-0.285 0.402,-0.333 0.402,-0.19C0.402,-0.141 0.362,-0.102 0.288,-0.102C0.215,-0.102 0.154,-0.14 0.145,-0.226L0.022,-0.195C0.044,-0.059 0.164,0.008 0.286,0.008Z" style="fill:white;fill-rule:nonzero;"/>
        </g>
        <g transform="matrix(10,0,0,10,416.702,466.114)">
            <path d="M0.286,0.008C0.418,0.008 0.526,-0.071 0.526,-0.201C0.526,-0.43 0.192,-0.386 0.192,-0.516C0.192,-0.56 0.23,-0.59 0.279,-0.59C0.325,-0.59 0.366,-0.563 0.39,-0.516L0.493,-0.579C0.446,-0.663 0.368,-0.7 0.283,-0.7C0.167,-0.7 0.068,-0.632 0.068,-0.51C0.068,-0.285 0.402,-0.333 0.402,-0.19C0.402,-0.141 0.362,-0.102 0.288,-0.102C0.215,-0.102 0.154,-0.14 0.145,-0.226L0.022,-0.195C0.044,-0.059 0.164,0.008 0.286,0.008Z" style="fill:white;fill-rule:nonzero;"/>
        </g>
        <g transform="matrix(10,0,0,10,422.254,466.114)">
            <rect x="0.089" y="-0.69" width="0.124" height="0.69" style="fill:white;fill-rule:nonzero;"/>
        </g>
        <g transform="matrix(10,0,0,10,425.272,466.114)">
            <path d="M0.373,0.01C0.601,0.01 0.706,-0.157 0.706,-0.345C0.706,-0.533 0.601,-0.7 0.373,-0.7C0.145,-0.7 0.04,-0.533 0.04,-0.345C0.04,-0.157 0.145,0.01 0.373,0.01ZM0.373,-0.1C0.225,-0.1 0.171,-0.215 0.171,-0.345C0.171,-0.475 0.225,-0.59 0.373,-0.59C0.521,-0.59 0.575,-0.475 0.575,-0.345C0.575,-0.215 0.521,-0.1 0.373,-0.1Z" style="fill:white;fill-rule:nonzero;"/>
        </g>
        <g transform="matrix(10,0,0,10,432.733,466.114)">
            <path d="M0.502,-0.69L0.502,-0.208L0.212,-0.69L0.089,-0.69L0.089,-0L0.208,-0L0.208,-0.485L0.497,-0L0.621,-0L0.621,-0.69L0.502,-0.69Z" style="fill:white;fill-rule:nonzero;"/>
        </g>
        <g transform="matrix(10,0,0,10,439.833,466.114)">
            <path d="M0.502,-0.69L0.502,-0.208L0.212,-0.69L0.089,-0.69L0.089,-0L0.208,-0L0.208,-0.485L0.497,-0L0.621,-0L0.621,-0.69L0.502,-0.69Z" style="fill:white;fill-rule:nonzero;"/>
        </g>
        <g transform="matrix(10,0,0,10,446.933,466.114)">
            <path d="M0.089,-0L0.548,-0L0.548,-0.117L0.213,-0.117L0.213,-0.288L0.525,-0.288L0.525,-0.402L0.213,-0.402L0.213,-0.576L0.548,-0.576L0.548,-0.69L0.089,-0.69L0.089,-0Z" style="fill:white;fill-rule:nonzero;"/>
        </g>
        <g transform="matrix(10,0,0,10,453.012,466.114)">
            <path d="M0.089,-0L0.508,-0L0.508,-0.117L0.213,-0.117L0.213,-0.69L0.089,-0.69L0.089,-0Z" style="fill:white;fill-rule:nonzero;"/>
        </g>
        <g transform="matrix(10,0,0,10,458.203,466.114)">
            <path d="M0.089,-0L0.508,-0L0.508,-0.117L0.213,-0.117L0.213,-0.69L0.089,-0.69L0.089,-0Z" style="fill:white;fill-rule:nonzero;"/>
        </g>
        <g transform="matrix(10,0,0,10,463.394,466.114)">
            <path d="M0.089,-0L0.548,-0L0.548,-0.117L0.213,-0.117L0.213,-0.288L0.525,-0.288L0.525,-0.402L0.213,-0.402L0.213,-0.576L0.548,-0.576L0.548,-0.69L0.089,-0.69L0.089,-0Z" style="fill:white;fill-rule:nonzero;"/>
        </g>
        <g transform="matrix(10,0,0,10,471.885,466.114)">
            <path d="M0.089,-0L0.548,-0L0.548,-0.117L0.213,-0.117L0.213,-0.288L0.525,-0.288L0.525,-0.402L0.213,-0.402L0.213,-0.576L0.548,-0.576L0.548,-0.69L0.089,-0.69L0.089,-0Z" style="fill:white;fill-rule:nonzero;"/>
        </g>
        <g transform="matrix(10,0,0,10,478.087,466.114)">
            <path d="M0.226,-0L0.35,-0L0.35,-0.579L0.566,-0.579L0.566,-0.69L0.01,-0.69L0.01,-0.579L0.226,-0.579L0.226,-0Z" style="fill:white;fill-rule:nonzero;"/>
        </g>
        <g transform="matrix(10,0,0,10,340.196,477.114)">
            <path d="M0.089,-0L0.213,-0L0.213,-0.288L0.535,-0.288L0.535,-0.402L0.213,-0.402L0.213,-0.576L0.578,-0.576L0.578,-0.69L0.089,-0.69L0.089,-0Z" style="fill:white;fill-rule:nonzero;"/>
        </g>
        <g transform="matrix(10,0,0,10,346.227,477.114)">
            <rect x="0.089" y="-0.69" width="0.124" height="0.69" style="fill:white;fill-rule:nonzero;"/>
        </g>
        <g transform="matrix(10,0,0,10,349.245,477.114)">
            <path d="M0.502,-0.69L0.502,-0.208L0.212,-0.69L0.089,-0.69L0.089,-0L0.208,-0L0.208,-0.485L0.497,-0L0.621,-0L0.621,-0.69L0.502,-0.69Z" style="fill:white;fill-rule:nonzero;"/>
        </g>
        <g transform="matrix(10,0,0,10,356.345,477.114)">
            <path d="M0.006,-0L0.141,-0L0.197,-0.15L0.461,-0.15L0.516,-0L0.65,-0L0.375,-0.69L0.282,-0.69L0.006,-0ZM0.236,-0.256L0.329,-0.508L0.422,-0.256L0.236,-0.256Z" style="fill:white;fill-rule:nonzero;"/>
        </g>
        <g transform="matrix(10,0,0,10,362.903,477.114)">
            <path d="M0.502,-0.69L0.502,-0.208L0.212,-0.69L0.089,-0.69L0.089,-0L0.208,-0L0.208,-0.485L0.497,-0L0.621,-0L0.621,-0.69L0.502,-0.69Z" style="fill:white;fill-rule:nonzero;"/>
        </g>
        <g transform="matrix(10,0,0,10,370.003,477.114)">
            <path d="M0.374,0.01C0.511,0.01 0.621,-0.06 0.676,-0.189L0.561,-0.236C0.524,-0.143 0.463,-0.108 0.374,-0.108C0.226,-0.108 0.163,-0.213 0.163,-0.35C0.163,-0.478 0.226,-0.583 0.372,-0.583C0.462,-0.583 0.533,-0.548 0.559,-0.457L0.675,-0.503C0.619,-0.632 0.51,-0.701 0.373,-0.701C0.146,-0.701 0.04,-0.534 0.04,-0.345C0.04,-0.156 0.147,0.01 0.374,0.01Z" style="fill:white;fill-rule:nonzero;"/>
        </g>
        <g transform="matrix(10,0,0,10,376.996,477.114)">
            <rect x="0.089" y="-0.69" width="0.124" height="0.69" style="fill:white;fill-rule:nonzero;"/>
        </g>
        <g transform="matrix(10,0,0,10,380.014,477.114)">
            <path d="M0.274,-0.75L0.364,-0.75L0.261,-0.891L0.134,-0.891L0.274,-0.75ZM0.089,-0L0.548,-0L0.548,-0.117L0.213,-0.117L0.213,-0.288L0.525,-0.288L0.525,-0.402L0.213,-0.402L0.213,-0.576L0.548,-0.576L0.548,-0.69L0.089,-0.69L0.089,-0Z" style="fill:white;fill-rule:nonzero;"/>
        </g>
        <g transform="matrix(10,0,0,10,386.093,477.114)">
            <path d="M0.089,-0L0.213,-0L0.213,-0.295L0.296,-0.295L0.466,-0L0.608,-0L0.416,-0.307C0.494,-0.334 0.551,-0.4 0.551,-0.487C0.551,-0.616 0.441,-0.69 0.312,-0.69L0.089,-0.69L0.089,-0ZM0.214,-0.396L0.214,-0.579L0.313,-0.579C0.384,-0.579 0.428,-0.542 0.428,-0.485C0.428,-0.433 0.389,-0.399 0.323,-0.396L0.214,-0.396Z" style="fill:white;fill-rule:nonzero;"/>
        </g>
        <g transform="matrix(10,0,0,10,392.285,477.114)">
            <path d="M0.089,-0L0.548,-0L0.548,-0.117L0.213,-0.117L0.213,-0.288L0.525,-0.288L0.525,-0.402L0.213,-0.402L0.213,-0.576L0.548,-0.576L0.548,-0.69L0.089,-0.69L0.089,-0Z" style="fill:white;fill-rule:nonzero;"/>
        </g>
        <g transform="matrix(10,0,0,10,400.777,477.114)">
            <path d="M0.089,-0L0.288,-0C0.52,-0 0.648,-0.125 0.648,-0.34C0.648,-0.564 0.524,-0.69 0.289,-0.69L0.089,-0.69L0.089,-0ZM0.213,-0.114L0.213,-0.576L0.287,-0.576C0.457,-0.576 0.524,-0.509 0.524,-0.345C0.524,-0.173 0.428,-0.114 0.276,-0.114L0.213,-0.114Z" style="fill:white;fill-rule:nonzero;"/>
        </g>
        <g transform="matrix(10,0,0,10,407.657,477.114)">
            <path d="M0.337,0.01C0.522,0.01 0.601,-0.1 0.601,-0.274L0.601,-0.69L0.477,-0.69L0.477,-0.283C0.477,-0.172 0.448,-0.11 0.337,-0.11C0.226,-0.11 0.197,-0.172 0.197,-0.283L0.197,-0.69L0.073,-0.69L0.073,-0.269C0.073,-0.1 0.152,0.01 0.337,0.01Z" style="fill:white;fill-rule:nonzero;"/>
        </g>
        <g transform="matrix(10,0,0,10,416.808,477.114)">
            <path d="M0.089,-0L0.212,-0L0.212,-0.286L0.305,-0.286C0.446,-0.286 0.549,-0.357 0.549,-0.486C0.549,-0.616 0.446,-0.69 0.305,-0.69L0.089,-0.69L0.089,-0ZM0.212,-0.402L0.212,-0.574L0.305,-0.574C0.389,-0.574 0.426,-0.542 0.426,-0.486C0.426,-0.431 0.39,-0.402 0.305,-0.402L0.212,-0.402Z" style="fill:white;fill-rule:nonzero;"/>
        </g>
        <g transform="matrix(10,0,0,10,422.605,477.114)">
            <path d="M0.089,-0L0.213,-0L0.213,-0.295L0.296,-0.295L0.466,-0L0.608,-0L0.416,-0.307C0.494,-0.334 0.551,-0.4 0.551,-0.487C0.551,-0.616 0.441,-0.69 0.312,-0.69L0.089,-0.69L0.089,-0ZM0.214,-0.396L0.214,-0.579L0.313,-0.579C0.384,-0.579 0.428,-0.542 0.428,-0.485C0.428,-0.433 0.389,-0.399 0.323,-0.396L0.214,-0.396Z" style="fill:white;fill-rule:nonzero;"/>
        </g>
        <g transform="matrix(10,0,0,10,428.748,477.114)">
            <path d="M0.373,0.01C0.601,0.01 0.706,-0.157 0.706,-0.345C0.706,-0.533 0.601,-0.7 0.373,-0.7C0.145,-0.7 0.04,-0.533 0.04,-0.345C0.04,-0.157 0.145,0.01 0.373,0.01ZM0.373,-0.1C0.225,-0.1 0.171,-0.215 0.171,-0.345C0.171,-0.475 0.225,-0.59 0.373,-0.59C0.521,-0.59 0.575,-0.475 0.575,-0.345C0.575,-0.215 0.521,-0.1 0.373,-0.1Z" style="fill:white;fill-rule:nonzero;"/>
        </g>
        <g transform="matrix(10,0,0,10,436.209,477.114)">
            <path d="M0.374,0.01C0.511,0.01 0.621,-0.06 0.676,-0.189L0.561,-0.236C0.524,-0.143 0.463,-0.108 0.374,-0.108C0.226,-0.108 0.163,-0.213 0.163,-0.35C0.163,-0.478 0.226,-0.583 0.372,-0.583C0.462,-0.583 0.533,-0.548 0.559,-0.457L0.675,-0.503C0.619,-0.632 0.51,-0.701 0.373,-0.701C0.146,-0.701 0.04,-0.534 0.04,-0.345C0.04,-0.156 0.147,0.01 0.374,0.01Z" style="fill:white;fill-rule:nonzero;"/>
        </g>
        <g transform="matrix(10,0,0,10,443.202,477.114)">
            <path d="M0.089,-0L0.213,-0L0.213,-0.288L0.515,-0.288L0.515,-0L0.639,-0L0.639,-0.69L0.515,-0.69L0.515,-0.402L0.213,-0.402L0.213,-0.69L0.089,-0.69L0.089,-0Z" style="fill:white;fill-rule:nonzero;"/>
        </g>
        <g transform="matrix(10,0,0,10,450.482,477.114)">
            <path d="M0.089,-0L0.548,-0L0.548,-0.117L0.213,-0.117L0.213,-0.288L0.525,-0.288L0.525,-0.402L0.213,-0.402L0.213,-0.576L0.548,-0.576L0.548,-0.69L0.089,-0.69L0.089,-0Z" style="fill:white;fill-rule:nonzero;"/>
        </g>
    </g>
    <g transform="matrix(0,4.16667,4.16667,0,1716.26,1499.04)">
        <rect x="93.243" y="-120.298" width="27.055" height="213.541" style="fill:none;stroke:rgb(36,109,143);stroke-width:2px;"/>
    </g>
    <g transform="matrix(4.16667,0,0,4.16667,0,1796.45)">
        <rect x="291.729" y="53.866" width="213.541" height="73.12" style="fill:none;stroke:rgb(36,109,143);stroke-width:2px;"/>
    </g>
    <g transform="matrix(0,4.16667,4.16667,0,2683.36,903.055)">
        <rect x="93.243" y="-120.298" width="27.055" height="213.541" style="fill:rgb(36,109,143);"/>
    </g>
    <g transform="matrix(4.16667,0,0,4.16667,0,0)">
        <g transform="matrix(10,0,0,10,543.509,329.079)">
            <path d="M0.089,-0L0.508,-0L0.508,-0.117L0.213,-0.117L0.213,-0.69L0.089,-0.69L0.089,-0Z" style="fill:white;fill-rule:nonzero;"/>
        </g>
        <g transform="matrix(10,0,0,10,548.7,329.079)">
            <path d="M0.089,-0L0.548,-0L0.548,-0.117L0.213,-0.117L0.213,-0.288L0.525,-0.288L0.525,-0.402L0.213,-0.402L0.213,-0.576L0.548,-0.576L0.548,-0.69L0.089,-0.69L0.089,-0Z" style="fill:white;fill-rule:nonzero;"/>
        </g>
        <g transform="matrix(10,0,0,10,554.779,329.079)">
            <path d="M0.286,0.008C0.418,0.008 0.526,-0.071 0.526,-0.201C0.526,-0.43 0.192,-0.386 0.192,-0.516C0.192,-0.56 0.23,-0.59 0.279,-0.59C0.325,-0.59 0.366,-0.563 0.39,-0.516L0.493,-0.579C0.446,-0.663 0.368,-0.7 0.283,-0.7C0.167,-0.7 0.068,-0.632 0.068,-0.51C0.068,-0.285 0.402,-0.333 0.402,-0.19C0.402,-0.141 0.362,-0.102 0.288,-0.102C0.215,-0.102 0.154,-0.14 0.145,-0.226L0.022,-0.195C0.044,-0.059 0.164,0.008 0.286,0.008Z" style="fill:white;fill-rule:nonzero;"/>
        </g>
        <g transform="matrix(10,0,0,10,562.744,329.079)">
            <path d="M0.089,-0L0.213,-0L0.213,-0.288L0.535,-0.288L0.535,-0.402L0.213,-0.402L0.213,-0.576L0.578,-0.576L0.578,-0.69L0.089,-0.69L0.089,-0Z" style="fill:white;fill-rule:nonzero;"/>
        </g>
        <g transform="matrix(10,0,0,10,568.233,329.079)">
            <path d="M0.006,-0L0.141,-0L0.197,-0.15L0.461,-0.15L0.516,-0L0.65,-0L0.375,-0.69L0.282,-0.69L0.006,-0ZM0.236,-0.256L0.329,-0.508L0.422,-0.256L0.236,-0.256Z" style="fill:white;fill-rule:nonzero;"/>
        </g>
        <g transform="matrix(10,0,0,10,574.449,329.079)">
            <path d="M0.374,0.01C0.511,0.01 0.621,-0.06 0.676,-0.189L0.561,-0.236C0.524,-0.143 0.463,-0.108 0.374,-0.108C0.226,-0.108 0.163,-0.213 0.163,-0.35C0.163,-0.478 0.226,-0.583 0.372,-0.583C0.462,-0.583 0.533,-0.548 0.559,-0.457L0.675,-0.503C0.619,-0.632 0.51,-0.701 0.373,-0.701C0.146,-0.701 0.04,-0.534 0.04,-0.345C0.04,-0.156 0.147,0.01 0.374,0.01Z" style="fill:white;fill-rule:nonzero;"/>
        </g>
        <g transform="matrix(10,0,0,10,581.364,329.079)">
            <path d="M0.226,-0L0.35,-0L0.35,-0.579L0.566,-0.579L0.566,-0.69L0.01,-0.69L0.01,-0.579L0.226,-0.579L0.226,-0Z" style="fill:white;fill-rule:nonzero;"/>
        </g>
        <g transform="matrix(10,0,0,10,587.126,329.079)">
            <path d="M0.089,-0L0.548,-0L0.548,-0.117L0.213,-0.117L0.213,-0.288L0.525,-0.288L0.525,-0.402L0.213,-0.402L0.213,-0.576L0.548,-0.576L0.548,-0.69L0.089,-0.69L0.089,-0Z" style="fill:white;fill-rule:nonzero;"/>
        </g>
        <g transform="matrix(10,0,0,10,593.205,329.079)">
            <path d="M0.337,0.01C0.522,0.01 0.601,-0.1 0.601,-0.274L0.601,-0.69L0.477,-0.69L0.477,-0.283C0.477,-0.172 0.448,-0.11 0.337,-0.11C0.226,-0.11 0.197,-0.172 0.197,-0.283L0.197,-0.69L0.073,-0.69L0.073,-0.269C0.073,-0.1 0.152,0.01 0.337,0.01Z" style="fill:white;fill-rule:nonzero;"/>
        </g>
        <g transform="matrix(10,0,0,10,599.944,329.079)">
            <path d="M0.089,-0L0.213,-0L0.213,-0.295L0.296,-0.295L0.466,-0L0.608,-0L0.416,-0.307C0.494,-0.334 0.551,-0.4 0.551,-0.487C0.551,-0.616 0.441,-0.69 0.312,-0.69L0.089,-0.69L0.089,-0ZM0.214,-0.396L0.214,-0.579L0.313,-0.579C0.384,-0.579 0.428,-0.542 0.428,-0.485C0.428,-0.433 0.389,-0.399 0.323,-0.396L0.214,-0.396Z" style="fill:white;fill-rule:nonzero;"/>
        </g>
        <g transform="matrix(10,0,0,10,606.136,329.079)">
            <path d="M0.286,0.008C0.418,0.008 0.526,-0.071 0.526,-0.201C0.526,-0.43 0.192,-0.386 0.192,-0.516C0.192,-0.56 0.23,-0.59 0.279,-0.59C0.325,-0.59 0.366,-0.563 0.39,-0.516L0.493,-0.579C0.446,-0.663 0.368,-0.7 0.283,-0.7C0.167,-0.7 0.068,-0.632 0.068,-0.51C0.068,-0.285 0.402,-0.333 0.402,-0.19C0.402,-0.141 0.362,-0.102 0.288,-0.102C0.215,-0.102 0.154,-0.14 0.145,-0.226L0.022,-0.195C0.044,-0.059 0.164,0.008 0.286,0.008Z" style="fill:white;fill-rule:nonzero;"/>
        </g>
        <g transform="matrix(10,0,0,10,614.101,329.079)">
            <path d="M0.089,-0L0.288,-0C0.52,-0 0.648,-0.125 0.648,-0.34C0.648,-0.564 0.524,-0.69 0.289,-0.69L0.089,-0.69L0.089,-0ZM0.213,-0.114L0.213,-0.576L0.287,-0.576C0.457,-0.576 0.524,-0.509 0.524,-0.345C0.524,-0.173 0.428,-0.114 0.276,-0.114L0.213,-0.114Z" style="fill:white;fill-rule:nonzero;"/>
        </g>
        <g transform="matrix(10,0,0,10,620.981,329.079)">
            <path d="M0.089,-0L0.548,-0L0.548,-0.117L0.213,-0.117L0.213,-0.288L0.525,-0.288L0.525,-0.402L0.213,-0.402L0.213,-0.576L0.548,-0.576L0.548,-0.69L0.089,-0.69L0.089,-0Z" style="fill:white;fill-rule:nonzero;"/>
        </g>
        <g transform="matrix(10,0,0,10,629.473,329.079)">
            <path d="M0.089,-0L0.288,-0C0.52,-0 0.648,-0.125 0.648,-0.34C0.648,-0.564 0.524,-0.69 0.289,-0.69L0.089,-0.69L0.089,-0ZM0.213,-0.114L0.213,-0.576L0.287,-0.576C0.457,-0.576 0.524,-0.509 0.524,-0.345C0.524,-0.173 0.428,-0.114 0.276,-0.114L0.213,-0.114Z" style="fill:white;fill-rule:nonzero;"/>
        </g>
        <g transform="matrix(10,0,0,10,636.353,329.079)">
            <path d="M0.089,-0L0.548,-0L0.548,-0.117L0.213,-0.117L0.213,-0.288L0.525,-0.288L0.525,-0.402L0.213,-0.402L0.213,-0.576L0.548,-0.576L0.548,-0.69L0.089,-0.69L0.089,-0Z" style="fill:white;fill-rule:nonzero;"/>
        </g>
        <g transform="matrix(10,0,0,10,642.433,329.079)">
            <path d="M0.337,0.01C0.522,0.01 0.601,-0.1 0.601,-0.274L0.601,-0.69L0.477,-0.69L0.477,-0.283C0.477,-0.172 0.448,-0.11 0.337,-0.11C0.226,-0.11 0.197,-0.172 0.197,-0.283L0.197,-0.69L0.073,-0.69L0.073,-0.269C0.073,-0.1 0.152,0.01 0.337,0.01Z" style="fill:white;fill-rule:nonzero;"/>
        </g>
        <g transform="matrix(10,0,0,10,649.172,329.079)">
            <rect x="0.089" y="-0.69" width="0.124" height="0.69" style="fill:white;fill-rule:nonzero;"/>
        </g>
        <g transform="matrix(10,0,0,10,652.19,329.079)">
            <path d="M0.089,-0L0.508,-0L0.508,-0.117L0.213,-0.117L0.213,-0.69L0.089,-0.69L0.089,-0Z" style="fill:white;fill-rule:nonzero;"/>
        </g>
        <g transform="matrix(10,0,0,10,659.793,329.079)">
            <path d="M0.374,0.01C0.511,0.01 0.621,-0.06 0.676,-0.189L0.561,-0.236C0.524,-0.143 0.463,-0.108 0.374,-0.108C0.226,-0.108 0.163,-0.213 0.163,-0.35C0.163,-0.478 0.226,-0.583 0.372,-0.583C0.462,-0.583 0.533,-0.548 0.559,-0.457L0.675,-0.503C0.619,-0.632 0.51,-0.701 0.373,-0.701C0.146,-0.701 0.04,-0.534 0.04,-0.345C0.04,-0.156 0.147,0.01 0.374,0.01Z" style="fill:white;fill-rule:nonzero;"/>
        </g>
        <g transform="matrix(10,0,0,10,666.717,329.079)">
            <path d="M0.373,0.01C0.601,0.01 0.706,-0.157 0.706,-0.345C0.706,-0.533 0.601,-0.7 0.373,-0.7C0.145,-0.7 0.04,-0.533 0.04,-0.345C0.04,-0.157 0.145,0.01 0.373,0.01ZM0.373,-0.1C0.225,-0.1 0.171,-0.215 0.171,-0.345C0.171,-0.475 0.225,-0.59 0.373,-0.59C0.521,-0.59 0.575,-0.475 0.575,-0.345C0.575,-0.215 0.521,-0.1 0.373,-0.1Z" style="fill:white;fill-rule:nonzero;"/>
        </g>
        <g transform="matrix(10,0,0,10,674.179,329.079)">
            <path d="M0.622,-0.69L0.439,-0.199L0.256,-0.69L0.089,-0.69L0.089,-0L0.208,-0L0.208,-0.515L0.379,-0.06L0.499,-0.06L0.67,-0.515L0.67,-0L0.789,-0L0.789,-0.69L0.622,-0.69Z" style="fill:white;fill-rule:nonzero;"/>
        </g>
        <g transform="matrix(10,0,0,10,682.958,329.079)">
            <path d="M0.089,-0L0.212,-0L0.212,-0.286L0.305,-0.286C0.446,-0.286 0.549,-0.357 0.549,-0.486C0.549,-0.616 0.446,-0.69 0.305,-0.69L0.089,-0.69L0.089,-0ZM0.212,-0.402L0.212,-0.574L0.305,-0.574C0.389,-0.574 0.426,-0.542 0.426,-0.486C0.426,-0.431 0.39,-0.402 0.305,-0.402L0.212,-0.402Z" style="fill:white;fill-rule:nonzero;"/>
        </g>
        <g transform="matrix(10,0,0,10,688.755,329.079)">
            <path d="M0.089,-0L0.508,-0L0.508,-0.117L0.213,-0.117L0.213,-0.69L0.089,-0.69L0.089,-0Z" style="fill:white;fill-rule:nonzero;"/>
        </g>
        <g transform="matrix(10,0,0,10,693.945,329.079)">
            <rect x="0.089" y="-0.69" width="0.124" height="0.69" style="fill:white;fill-rule:nonzero;"/>
        </g>
        <g transform="matrix(10,0,0,10,696.963,329.079)">
            <path d="M0.657,0.058L0.737,-0.017L0.638,-0.111C0.682,-0.172 0.706,-0.256 0.706,-0.344C0.706,-0.532 0.601,-0.7 0.373,-0.7C0.145,-0.7 0.04,-0.533 0.04,-0.345C0.04,-0.157 0.145,0.01 0.373,0.01C0.446,0.01 0.508,-0.008 0.558,-0.041L0.657,0.058ZM0.373,-0.107C0.225,-0.107 0.164,-0.215 0.164,-0.345C0.164,-0.475 0.225,-0.583 0.373,-0.583C0.521,-0.583 0.582,-0.475 0.582,-0.345C0.582,-0.291 0.572,-0.244 0.548,-0.201L0.456,-0.286L0.376,-0.213L0.47,-0.127C0.445,-0.115 0.412,-0.107 0.373,-0.107Z" style="fill:white;fill-rule:nonzero;"/>
        </g>
        <g transform="matrix(10,0,0,10,704.645,329.079)">
            <path d="M0.337,0.01C0.522,0.01 0.601,-0.1 0.601,-0.274L0.601,-0.69L0.477,-0.69L0.477,-0.283C0.477,-0.172 0.448,-0.11 0.337,-0.11C0.226,-0.11 0.197,-0.172 0.197,-0.283L0.197,-0.69L0.073,-0.69L0.073,-0.269C0.073,-0.1 0.152,0.01 0.337,0.01Z" style="fill:white;fill-rule:nonzero;"/>
        </g>
        <g transform="matrix(10,0,0,10,711.383,329.079)">
            <path d="M0.261,-0.75L0.348,-0.75L0.498,-0.891L0.371,-0.891L0.261,-0.75ZM0.089,-0L0.548,-0L0.548,-0.117L0.213,-0.117L0.213,-0.288L0.525,-0.288L0.525,-0.402L0.213,-0.402L0.213,-0.576L0.548,-0.576L0.548,-0.69L0.089,-0.69L0.089,-0Z" style="fill:white;fill-rule:nonzero;"/>
        </g>
    </g>
    <g transform="matrix(0,4.16667,4.16667,0,2683.36,903.055)">
        <rect x="93.243" y="-120.298" width="27.055" height="213.541" style="fill:none;stroke:rgb(36,109,143);stroke-width:2px;"/>
    </g>
    <g transform="matrix(4.16667,0,0,4.16667,0,775.138)">
        <rect x="523.709" y="156.008" width="213.541" height="113.951" style="fill:none;stroke:rgb(36,109,143);stroke-width:2px;"/>
    </g>
    <g transform="matrix(0,4.16667,4.16667,0,1716.26,964.723)">
        <rect x="93.243" y="-120.298" width="27.055" height="213.541" style="fill:rgb(36,109,143);"/>
    </g>
    <g transform="matrix(4.16667,0,0,4.16667,0,0)">
        <g transform="matrix(10,0,0,10,325.362,343.879)">
            <path d="M0.089,-0L0.508,-0L0.508,-0.117L0.213,-0.117L0.213,-0.69L0.089,-0.69L0.089,-0Z" style="fill:white;fill-rule:nonzero;"/>
        </g>
        <g transform="matrix(10,0,0,10,330.553,343.879)">
            <path d="M0.089,-0L0.548,-0L0.548,-0.117L0.213,-0.117L0.213,-0.288L0.525,-0.288L0.525,-0.402L0.213,-0.402L0.213,-0.576L0.548,-0.576L0.548,-0.69L0.089,-0.69L0.089,-0Z" style="fill:white;fill-rule:nonzero;"/>
        </g>
        <g transform="matrix(10,0,0,10,339.045,343.879)">
            <path d="M0.089,-0L0.213,-0L0.213,-0.295L0.296,-0.295L0.466,-0L0.608,-0L0.416,-0.307C0.494,-0.334 0.551,-0.4 0.551,-0.487C0.551,-0.616 0.441,-0.69 0.312,-0.69L0.089,-0.69L0.089,-0ZM0.214,-0.396L0.214,-0.579L0.313,-0.579C0.384,-0.579 0.428,-0.542 0.428,-0.485C0.428,-0.433 0.389,-0.399 0.323,-0.396L0.214,-0.396Z" style="fill:white;fill-rule:nonzero;"/>
        </g>
        <g transform="matrix(10,0,0,10,345.236,343.879)">
            <path d="M0.261,-0.75L0.348,-0.75L0.498,-0.891L0.371,-0.891L0.261,-0.75ZM0.089,-0L0.548,-0L0.548,-0.117L0.213,-0.117L0.213,-0.288L0.525,-0.288L0.525,-0.402L0.213,-0.402L0.213,-0.576L0.548,-0.576L0.548,-0.69L0.089,-0.69L0.089,-0Z" style="fill:white;fill-rule:nonzero;"/>
        </g>
        <g transform="matrix(10,0,0,10,351.316,343.879)">
            <path d="M0.286,0.008C0.418,0.008 0.526,-0.071 0.526,-0.201C0.526,-0.43 0.192,-0.386 0.192,-0.516C0.192,-0.56 0.23,-0.59 0.279,-0.59C0.325,-0.59 0.366,-0.563 0.39,-0.516L0.493,-0.579C0.446,-0.663 0.368,-0.7 0.283,-0.7C0.167,-0.7 0.068,-0.632 0.068,-0.51C0.068,-0.285 0.402,-0.333 0.402,-0.19C0.402,-0.141 0.362,-0.102 0.288,-0.102C0.215,-0.102 0.154,-0.14 0.145,-0.226L0.022,-0.195C0.044,-0.059 0.164,0.008 0.286,0.008Z" style="fill:white;fill-rule:nonzero;"/>
        </g>
        <g transform="matrix(10,0,0,10,356.868,343.879)">
            <path d="M0.089,-0L0.548,-0L0.548,-0.117L0.213,-0.117L0.213,-0.288L0.525,-0.288L0.525,-0.402L0.213,-0.402L0.213,-0.576L0.548,-0.576L0.548,-0.69L0.089,-0.69L0.089,-0Z" style="fill:white;fill-rule:nonzero;"/>
        </g>
        <g transform="matrix(10,0,0,10,362.947,343.879)">
            <path d="M0.006,-0L0.141,-0L0.197,-0.15L0.461,-0.15L0.516,-0L0.65,-0L0.375,-0.69L0.282,-0.69L0.006,-0ZM0.236,-0.256L0.329,-0.508L0.422,-0.256L0.236,-0.256Z" style="fill:white;fill-rule:nonzero;"/>
        </g>
        <g transform="matrix(10,0,0,10,369.295,343.879)">
            <path d="M0.337,0.01C0.522,0.01 0.601,-0.1 0.601,-0.274L0.601,-0.69L0.477,-0.69L0.477,-0.283C0.477,-0.172 0.448,-0.11 0.337,-0.11C0.226,-0.11 0.197,-0.172 0.197,-0.283L0.197,-0.69L0.073,-0.69L0.073,-0.269C0.073,-0.1 0.152,0.01 0.337,0.01Z" style="fill:white;fill-rule:nonzero;"/>
        </g>
        <g transform="matrix(10,0,0,10,378.446,343.879)">
            <path d="M0.286,0.008C0.418,0.008 0.526,-0.071 0.526,-0.201C0.526,-0.43 0.192,-0.386 0.192,-0.516C0.192,-0.56 0.23,-0.59 0.279,-0.59C0.325,-0.59 0.366,-0.563 0.39,-0.516L0.493,-0.579C0.446,-0.663 0.368,-0.7 0.283,-0.7C0.167,-0.7 0.068,-0.632 0.068,-0.51C0.068,-0.285 0.402,-0.333 0.402,-0.19C0.402,-0.141 0.362,-0.102 0.288,-0.102C0.215,-0.102 0.154,-0.14 0.145,-0.226L0.022,-0.195C0.044,-0.059 0.164,0.008 0.286,0.008Z" style="fill:white;fill-rule:nonzero;"/>
        </g>
        <g transform="matrix(10,0,0,10,383.978,343.879)">
            <path d="M0.373,0.01C0.601,0.01 0.706,-0.157 0.706,-0.345C0.706,-0.533 0.601,-0.7 0.373,-0.7C0.145,-0.7 0.04,-0.533 0.04,-0.345C0.04,-0.157 0.145,0.01 0.373,0.01ZM0.373,-0.1C0.225,-0.1 0.171,-0.215 0.171,-0.345C0.171,-0.475 0.225,-0.59 0.373,-0.59C0.521,-0.59 0.575,-0.475 0.575,-0.345C0.575,-0.215 0.521,-0.1 0.373,-0.1Z" style="fill:white;fill-rule:nonzero;"/>
        </g>
        <g transform="matrix(10,0,0,10,391.439,343.879)">
            <path d="M0.374,0.01C0.511,0.01 0.621,-0.06 0.676,-0.189L0.561,-0.236C0.524,-0.143 0.463,-0.108 0.374,-0.108C0.226,-0.108 0.163,-0.213 0.163,-0.35C0.163,-0.478 0.226,-0.583 0.372,-0.583C0.462,-0.583 0.533,-0.548 0.559,-0.457L0.675,-0.503C0.619,-0.632 0.51,-0.701 0.373,-0.701C0.146,-0.701 0.04,-0.534 0.04,-0.345C0.04,-0.156 0.147,0.01 0.374,0.01Z" style="fill:white;fill-rule:nonzero;"/>
        </g>
        <g transform="matrix(10,0,0,10,398.432,343.879)">
            <rect x="0.089" y="-0.69" width="0.124" height="0.69" style="fill:white;fill-rule:nonzero;"/>
        </g>
        <g transform="matrix(10,0,0,10,401.45,343.879)">
            <path d="M0.006,-0L0.141,-0L0.197,-0.15L0.461,-0.15L0.516,-0L0.65,-0L0.375,-0.69L0.282,-0.69L0.006,-0ZM0.236,-0.256L0.329,-0.508L0.422,-0.256L0.236,-0.256Z" style="fill:white;fill-rule:nonzero;"/>
        </g>
        <g transform="matrix(10,0,0,10,408.008,343.879)">
            <path d="M0.089,-0L0.508,-0L0.508,-0.117L0.213,-0.117L0.213,-0.69L0.089,-0.69L0.089,-0Z" style="fill:white;fill-rule:nonzero;"/>
        </g>
        <g transform="matrix(10,0,0,10,415.611,343.879)">
            <path d="M0.089,-0L0.288,-0C0.52,-0 0.648,-0.125 0.648,-0.34C0.648,-0.564 0.524,-0.69 0.289,-0.69L0.089,-0.69L0.089,-0ZM0.213,-0.114L0.213,-0.576L0.287,-0.576C0.457,-0.576 0.524,-0.509 0.524,-0.345C0.524,-0.173 0.428,-0.114 0.276,-0.114L0.213,-0.114Z" style="fill:white;fill-rule:nonzero;"/>
        </g>
        <g transform="matrix(10,0,0,10,422.491,343.879)">
            <path d="M0.337,0.01C0.522,0.01 0.601,-0.1 0.601,-0.274L0.601,-0.69L0.477,-0.69L0.477,-0.283C0.477,-0.172 0.448,-0.11 0.337,-0.11C0.226,-0.11 0.197,-0.172 0.197,-0.283L0.197,-0.69L0.073,-0.69L0.073,-0.269C0.073,-0.1 0.152,0.01 0.337,0.01Z" style="fill:white;fill-rule:nonzero;"/>
        </g>
        <g transform="matrix(10,0,0,10,431.642,343.879)">
            <path d="M0.089,-0L0.212,-0L0.212,-0.286L0.305,-0.286C0.446,-0.286 0.549,-0.357 0.549,-0.486C0.549,-0.616 0.446,-0.69 0.305,-0.69L0.089,-0.69L0.089,-0ZM0.212,-0.402L0.212,-0.574L0.305,-0.574C0.389,-0.574 0.426,-0.542 0.426,-0.486C0.426,-0.431 0.39,-0.402 0.305,-0.402L0.212,-0.402Z" style="fill:white;fill-rule:nonzero;"/>
        </g>
        <g transform="matrix(10,0,0,10,437.438,343.879)">
            <path d="M0.089,-0L0.213,-0L0.213,-0.295L0.296,-0.295L0.466,-0L0.608,-0L0.416,-0.307C0.494,-0.334 0.551,-0.4 0.551,-0.487C0.551,-0.616 0.441,-0.69 0.312,-0.69L0.089,-0.69L0.089,-0ZM0.214,-0.396L0.214,-0.579L0.313,-0.579C0.384,-0.579 0.428,-0.542 0.428,-0.485C0.428,-0.433 0.389,-0.399 0.323,-0.396L0.214,-0.396Z" style="fill:white;fill-rule:nonzero;"/>
        </g>
        <g transform="matrix(10,0,0,10,443.581,343.879)">
            <path d="M0.373,0.01C0.601,0.01 0.706,-0.157 0.706,-0.345C0.706,-0.533 0.601,-0.7 0.373,-0.7C0.145,-0.7 0.04,-0.533 0.04,-0.345C0.04,-0.157 0.145,0.01 0.373,0.01ZM0.373,-0.1C0.225,-0.1 0.171,-0.215 0.171,-0.345C0.171,-0.475 0.225,-0.59 0.373,-0.59C0.521,-0.59 0.575,-0.475 0.575,-0.345C0.575,-0.215 0.521,-0.1 0.373,-0.1Z" style="fill:white;fill-rule:nonzero;"/>
        </g>
        <g transform="matrix(10,0,0,10,451.042,343.879)">
            <path d="M0.374,0.01C0.511,0.01 0.621,-0.06 0.676,-0.189L0.561,-0.236C0.524,-0.143 0.463,-0.108 0.374,-0.108C0.226,-0.108 0.163,-0.213 0.163,-0.35C0.163,-0.478 0.226,-0.583 0.372,-0.583C0.462,-0.583 0.533,-0.548 0.559,-0.457L0.675,-0.503C0.619,-0.632 0.51,-0.701 0.373,-0.701C0.146,-0.701 0.04,-0.534 0.04,-0.345C0.04,-0.156 0.147,0.01 0.374,0.01Z" style="fill:white;fill-rule:nonzero;"/>
        </g>
        <g transform="matrix(10,0,0,10,458.034,343.879)">
            <path d="M0.089,-0L0.213,-0L0.213,-0.288L0.515,-0.288L0.515,-0L0.639,-0L0.639,-0.69L0.515,-0.69L0.515,-0.402L0.213,-0.402L0.213,-0.69L0.089,-0.69L0.089,-0Z" style="fill:white;fill-rule:nonzero;"/>
        </g>
        <g transform="matrix(10,0,0,10,465.315,343.879)">
            <path d="M0.089,-0L0.548,-0L0.548,-0.117L0.213,-0.117L0.213,-0.288L0.525,-0.288L0.525,-0.402L0.213,-0.402L0.213,-0.576L0.548,-0.576L0.548,-0.69L0.089,-0.69L0.089,-0Z" style="fill:white;fill-rule:nonzero;"/>
        </g>
    </g>
    <g transform="matrix(0,4.16667,4.16667,0,1716.26,964.723)">
        <rect x="93.243" y="-120.298" width="27.055" height="213.541" style="fill:none;stroke:rgb(36,109,143);stroke-width:2px;"/>
    </g>
    <g transform="matrix(4.16667,0,0,4.16667,0,764.5)">
        <rect x="291.729" y="173.299" width="213.541" height="81.922" style="fill:none;stroke:rgb(36,109,143);stroke-width:2px;"/>
    </g>
</svg>
